<svg width="276" height="40" viewBox="0 0 276 40" fill="none" xmlns="http://www.w3.org/2000/svg">
<g clip-path="url(#clip0_3442_20118)">
<path fill-rule="evenodd" clip-rule="evenodd" d="M12.7357 39.5692C12.5669 39.4436 12.4504 39.2601 12.4085 39.0539C12.2771 38.567 12.1483 38.0796 12.022 37.5918C11.9048 37.1435 11.7966 36.6901 11.6768 36.2444C11.5387 35.7787 11.5031 35.2887 11.5724 34.808C11.6639 34.2283 11.7386 33.6486 11.8198 33.0651C11.843 32.9015 11.8687 32.7379 11.8816 32.5743C11.9192 32.0143 12.0713 31.468 12.3286 30.9692C12.6867 30.2851 13.0487 29.6024 13.421 28.9261C13.9582 27.9522 14.507 26.9848 15.0506 26.0147C15.2677 25.6281 15.4205 25.2087 15.5027 24.7729C15.7449 23.5285 16 22.288 16.353 21.0693C16.4886 20.5936 16.6848 20.1373 16.9365 19.7116C17.1555 19.3393 17.3706 18.9631 17.5806 18.587C17.6669 18.4349 17.7416 18.2765 17.8189 18.1193C18.1955 17.3832 18.7493 16.7524 19.4305 16.2836C19.7809 16.026 20.1506 15.8057 20.5126 15.5674C21.6416 14.8313 22.5403 13.7919 23.1057 12.5685C23.2732 12.2104 23.335 11.8213 23.4497 11.449C23.5235 11.2006 23.5089 10.9343 23.4085 10.6954C23.2951 10.3875 23.1946 10.0732 23.0812 9.76405C23.0513 9.67745 23.0078 9.59615 22.9524 9.52316C22.8236 9.36342 22.6845 9.39434 22.6033 9.58242C22.5795 9.63931 22.5614 9.69843 22.5492 9.7589C22.536 9.81923 22.5265 9.88032 22.5209 9.94182C22.4629 10.5679 22.3921 11.1927 22.3508 11.8187C22.3165 12.39 22.0894 12.9327 21.7067 13.3581C21.5986 13.4826 21.4811 13.5984 21.3551 13.7047C20.3631 14.5265 19.397 15.3793 18.4424 16.2411C18.3064 16.3673 18.1636 16.486 18.0147 16.5967C17.7368 16.7967 17.5251 17.0753 17.4067 17.3967C17.281 17.6897 17.1369 17.9746 16.9752 18.2494C16.5964 18.9464 16.2151 19.642 15.8506 20.3466C15.5263 20.9593 15.0538 21.481 14.4761 21.8641C14.3535 21.9407 14.2372 22.0269 14.1282 22.1218C13.9957 22.2529 13.8347 22.3516 13.6577 22.4102C13.4807 22.4688 13.2926 22.4856 13.108 22.4593C12.8306 22.4275 12.5558 22.3846 12.2835 22.3305C11.8374 22.2497 11.3864 22.1989 10.9335 22.1785C10.8047 22.1707 10.6862 22.1785 10.5625 22.1785C10.3164 22.1785 10.0691 22.1785 9.82306 22.1591C9.31829 22.1167 8.82698 21.9744 8.3777 21.7405C8.18447 21.6439 7.99124 21.5447 7.80445 21.439C7.57451 21.3156 7.39296 21.1181 7.28917 20.8787C7.12155 20.5031 6.98204 20.1155 6.87179 19.7193C6.84561 19.6307 6.83902 19.5375 6.85246 19.4462C6.86742 19.3752 6.89902 19.3089 6.94467 19.2525C6.99032 19.1962 7.04872 19.1515 7.11503 19.1222C7.18134 19.0929 7.25367 19.0798 7.32606 19.0839C7.39845 19.0881 7.46881 19.1093 7.53135 19.146C7.56712 19.1664 7.60116 19.1897 7.63312 19.2156C8.05536 19.5178 8.55932 19.6849 9.07848 19.6948C9.30447 19.7084 9.53122 19.7019 9.75607 19.6755C10.1776 19.6274 10.6046 19.6764 11.0043 19.8185C11.6188 20.0272 12.2268 20.2565 12.8375 20.4755C12.9431 20.5163 13.0516 20.5494 13.1621 20.5747C13.2323 20.5882 13.3044 20.5882 13.3746 20.5747C13.3926 20.5672 13.4087 20.5559 13.4216 20.5414C13.4345 20.5268 13.444 20.5096 13.4494 20.4909C13.4503 20.451 13.4386 20.4117 13.4159 20.3788C13.4081 20.3634 13.3849 20.3531 13.3656 20.3441C13.0075 20.1654 12.6485 19.9872 12.2887 19.8095C11.6899 19.5309 11.064 19.3151 10.4208 19.1654C10.1309 19.0906 9.83981 19.0249 9.55125 18.9489C8.97381 18.7915 8.4226 18.5502 7.91523 18.2327C7.7466 18.1302 7.60186 17.9928 7.49076 17.8297C7.37966 17.6666 7.30477 17.4816 7.27113 17.2872C7.17354 16.7911 7.15744 16.2825 7.22347 15.7812C7.24283 15.5902 7.30632 15.4063 7.40894 15.244C7.51155 15.0817 7.65048 14.9454 7.81475 14.846C8.11295 14.6591 8.3516 14.391 8.50265 14.0731C8.57737 13.9262 8.65853 13.782 8.73453 13.6364C8.75913 13.5911 8.78064 13.5442 8.79894 13.496C8.81762 13.4588 8.82454 13.4169 8.81879 13.3757C8.81303 13.3345 8.79488 13.296 8.76673 13.2654C8.72722 13.2317 8.67777 13.2118 8.62591 13.2088C8.57405 13.2057 8.52263 13.2197 8.47946 13.2486C8.43805 13.2788 8.39887 13.312 8.36224 13.3478C8.20654 13.485 8.01114 13.569 7.80445 13.5874C7.71298 13.5965 7.62023 13.6068 7.52748 13.6068C7.34154 13.6003 7.15621 13.6314 6.98257 13.6982C6.83636 13.7516 6.67881 13.7663 6.52526 13.7407C6.50697 13.7398 6.4891 13.7349 6.47284 13.7265C6.45658 13.718 6.4423 13.7062 6.43097 13.6918C6.41963 13.6775 6.41149 13.6608 6.40709 13.643C6.40269 13.6253 6.40214 13.6067 6.40546 13.5887C6.42454 13.4558 6.48284 13.3315 6.57293 13.2319C6.95456 12.7687 7.43352 12.3953 7.97578 12.1382C8.5413 11.8651 9.11841 11.6229 9.69424 11.3653C10.328 11.0909 10.967 10.832 11.5995 10.5563C11.7862 10.4696 11.9658 10.3684 12.1367 10.2536C12.3448 10.1179 12.5171 9.93408 12.6391 9.71768C13.1312 8.86618 13.8667 8.29035 14.7453 7.87812C15.3375 7.61275 15.9496 7.39395 16.5758 7.22372C16.8734 7.1387 17.1735 7.0614 17.4634 6.95706C18.025 6.75033 18.5476 6.45026 19.0092 6.06949C19.2208 5.90266 19.3594 5.66018 19.3957 5.39318C19.4099 5.30043 19.4189 5.20897 19.4356 5.11751C19.4937 4.76737 19.6768 4.45017 19.9509 4.22478C20.026 4.15292 20.1241 4.11002 20.2279 4.10369C20.2493 4.10114 20.2709 4.10364 20.2912 4.11098C20.3114 4.11831 20.3296 4.13029 20.3444 4.14594C20.3592 4.16159 20.3701 4.18049 20.3763 4.20112C20.3824 4.22174 20.3837 4.24352 20.3799 4.26471C20.3579 4.36457 20.321 4.46054 20.2704 4.54941C20.0926 4.85085 19.9033 5.14585 19.7216 5.45115C19.625 5.6096 19.5322 5.76934 19.4408 5.93165C19.402 6.00425 19.3676 6.0791 19.3377 6.1558C19.3017 6.24726 19.3648 6.32069 19.4665 6.30136C19.6131 6.28477 19.7495 6.21838 19.853 6.11329C19.9342 6.02182 20.0192 5.93036 20.0978 5.83632C20.3902 5.48851 20.6891 5.14842 20.9673 4.79159C21.2456 4.43476 21.4916 4.1024 21.7248 3.73784C22.1265 3.10908 22.697 2.60599 23.3711 2.28603C23.8675 2.03098 24.3846 1.81853 24.9169 1.65095C25.5387 1.44622 26.2104 1.44983 26.8299 1.66126C27.246 1.8094 27.6698 1.94209 28.0795 2.10826C28.7093 2.34492 29.274 2.7277 29.7271 3.22514C29.9977 3.53646 30.2428 3.86903 30.4601 4.21963C31.0385 5.14456 31.5692 6.09783 32.0922 7.05367C32.1566 7.1709 32.2211 7.28555 32.2893 7.40407C32.4101 7.62285 32.5883 7.80456 32.8046 7.92965C33.4025 8.3012 33.8991 8.81503 34.25 9.42525C34.5015 9.8516 34.7021 10.306 34.8477 10.7792C34.9367 11.0861 34.9754 11.4054 34.9623 11.7247C34.963 12.3228 34.9321 12.9205 34.8696 13.5153C34.8052 14.0179 34.875 14.5286 35.0718 14.9954C35.2226 15.3574 35.3759 15.7168 35.5279 16.0775C35.6941 16.4665 35.8235 16.8702 35.9143 17.2833C36.0063 17.7169 36.0241 18.1629 35.9671 18.6024C35.9215 18.9914 35.9008 19.383 35.9053 19.7747C35.9053 19.9602 35.9053 20.1457 35.9053 20.3312C35.9143 21.3746 35.6219 22.3446 35.1659 23.2709C34.7739 24.0434 34.279 24.7593 33.6948 25.399C32.8858 26.3232 31.9669 27.1452 30.9586 27.8466C30.2579 28.3189 29.5296 28.749 28.7777 29.1348C28.5871 29.2364 28.4134 29.3668 28.2624 29.5212C27.8286 29.9764 27.4197 30.4546 27.0373 30.9537C26.9291 31.0903 26.8196 31.2268 26.714 31.3672C26.6636 31.4315 26.6204 31.501 26.5852 31.5746C26.5796 31.5932 26.5785 31.6128 26.5821 31.6319C26.5857 31.6509 26.5938 31.6688 26.6058 31.6841C26.6215 31.6957 26.6396 31.7036 26.6588 31.7072C26.678 31.7108 26.6977 31.7099 26.7166 31.7047C26.7635 31.6857 26.807 31.6591 26.8454 31.6261C27.2602 31.3376 27.6711 31.0452 28.0872 30.7605C29.0559 30.0983 30.0079 29.4091 31.0501 28.8591C31.6539 28.543 32.2226 28.1638 32.7466 27.728C33.0635 27.4704 33.3766 27.1973 33.6922 26.9319C33.7532 26.8766 33.8182 26.8258 33.8867 26.7799C33.9064 26.7659 33.929 26.7564 33.9528 26.7519C33.9766 26.7475 34.0011 26.7482 34.0245 26.7542C34.058 26.7709 34.0735 26.834 34.0864 26.883C34.0906 26.9136 34.0884 26.9447 34.0799 26.9744C34.0013 27.3789 33.9279 27.7834 33.839 28.1854C33.7616 28.5172 33.6311 28.8343 33.4526 29.1245C33.2516 29.4607 33.0661 29.8033 32.8523 30.1331C32.5671 30.5637 32.2077 30.9401 31.7908 31.2448C31.3039 31.5915 30.771 31.8686 30.2076 32.068C29.6923 32.269 29.1873 32.5124 28.6785 32.7353C28.4428 32.8383 28.2083 32.944 27.9687 33.038C27.6371 33.1569 27.2899 33.2263 26.9381 33.2441C26.4552 33.2858 25.9699 33.2901 25.4863 33.257C25.0817 33.2213 24.6783 33.338 24.3553 33.5842C23.9289 33.9063 23.5102 34.2399 23.0864 34.5684C22.7772 34.8067 22.4732 35.0579 22.0958 35.188C21.8922 35.2576 21.6861 35.3246 21.4761 35.3761C20.3348 35.6526 19.193 35.927 18.0508 36.1993C17.9619 36.2212 17.8705 36.2379 17.779 36.2534C17.0837 36.3553 16.4175 36.6019 15.8235 36.9773C15.1871 37.3973 14.5353 37.8018 13.9878 38.3325C13.7212 38.5902 13.4725 38.8646 13.2149 39.1377C13.0635 39.2905 12.9035 39.4346 12.7357 39.5692ZM34.2242 20.5901C34.2242 20.2036 34.2178 19.9112 34.2242 19.624C34.2242 19.4732 34.2938 19.4397 34.4239 19.4951C34.4703 19.5157 34.5141 19.5454 34.5617 19.5634C34.5801 19.5743 34.601 19.5804 34.6223 19.5811C34.6437 19.5819 34.6649 19.5774 34.6841 19.5679C34.7032 19.5585 34.7198 19.5444 34.7321 19.527C34.7445 19.5095 34.7523 19.4893 34.7549 19.4681C34.7831 19.3482 34.7961 19.2253 34.7936 19.1022C34.7472 18.465 34.6948 17.8286 34.6364 17.1931C34.6162 16.8523 34.523 16.5197 34.3633 16.2179C34.2422 16.0025 34.1093 15.794 33.9653 15.5932C33.7076 15.2247 33.4191 14.8692 33.1614 14.4969C32.9479 14.1938 32.7114 13.9074 32.4542 13.6403C32.1795 13.3458 31.8776 13.0779 31.5525 12.8403C30.9067 12.3774 30.195 12.0143 29.4411 11.7633C29.1178 11.6551 28.797 11.5431 28.4801 11.422C27.9241 11.2258 27.4136 10.9191 26.9794 10.5202C26.8514 10.4008 26.713 10.293 26.5658 10.1982C26.4784 10.1456 26.3825 10.1085 26.2824 10.0887C26.1626 10.0603 26.0866 10.1518 26.1137 10.2729C26.1415 10.3837 26.1989 10.4847 26.2799 10.5653C26.4254 10.7251 26.5633 10.8912 26.7114 11.0484C27.0154 11.3704 27.3091 11.7041 27.6325 12.0055C28.155 12.4719 28.7122 12.8978 29.2994 13.2796C29.6913 13.5336 30.0062 13.89 30.2102 14.3101C30.3828 14.6721 30.5966 15.0161 30.7808 15.3703C30.956 15.6975 31.1351 16.0221 31.2961 16.3558C31.6692 17.0862 31.8043 17.915 31.6826 18.7261C31.6594 18.8781 31.6517 19.034 31.6401 19.1873C31.5924 19.8558 31.5435 20.5231 31.4997 21.1917C31.4884 21.3978 31.4404 21.6002 31.358 21.7894C30.88 22.8573 30.2991 23.8583 29.4901 24.7188C29.1358 25.1184 28.8439 25.5692 28.6244 26.056C28.2547 26.8186 28.0267 27.634 27.7226 28.4198C27.698 28.5083 27.6941 28.6013 27.7111 28.6916C27.7126 28.7151 27.7202 28.7377 27.733 28.7574C27.7458 28.7771 27.7634 28.7932 27.7842 28.8042C27.805 28.8152 27.8282 28.8206 27.8517 28.8201C27.8752 28.8196 27.8982 28.813 27.9184 28.8011C28.0389 28.7404 28.1379 28.6442 28.2019 28.5254L28.4531 28.099C28.7255 27.6145 29.0302 27.1488 29.3651 26.7052C29.6975 26.2827 30.0813 25.9104 30.4446 25.5162C30.4821 25.4794 30.5257 25.4493 30.5734 25.4273C30.5926 25.414 30.6149 25.4058 30.6381 25.4032C30.6613 25.4007 30.6847 25.404 30.7064 25.4128C30.728 25.4216 30.747 25.4357 30.7618 25.4538C30.7766 25.4718 30.7867 25.4933 30.7911 25.5162C30.8182 25.6051 30.8324 25.6978 30.862 25.7854C30.8662 25.8168 30.8791 25.8464 30.8991 25.8709C30.9191 25.8954 30.9456 25.9138 30.9754 25.9242C31.0053 25.9346 31.0375 25.9366 31.0684 25.9298C31.0993 25.923 31.1277 25.9079 31.1506 25.8859C31.2319 25.8301 31.3051 25.7633 31.3683 25.6875C31.6001 25.4119 31.8294 25.1323 32.0536 24.8502C32.5903 24.1726 33.1262 23.4933 33.6613 22.8123C33.9718 22.4362 34.1525 21.9699 34.1765 21.4828C34.192 21.1466 34.2126 20.8181 34.2242 20.5901ZM18.0366 33.02C18.0266 33.2159 18.0582 33.4117 18.1294 33.5945C18.1372 33.6209 18.1526 33.6445 18.1736 33.6623C18.1946 33.6801 18.2203 33.6915 18.2477 33.6949C18.275 33.6983 18.3028 33.6937 18.3275 33.6816C18.3523 33.6695 18.3729 33.6504 18.387 33.6267C18.4632 33.5304 18.5269 33.4248 18.5764 33.3124C18.7606 32.8654 18.9319 32.4107 19.1149 31.9649C19.3144 31.4751 19.6473 31.0511 20.0759 30.7412C20.6491 30.3212 21.2121 29.8884 21.7905 29.4761C22.3058 29.1116 22.821 28.7547 23.3492 28.4198C23.9806 28.0297 24.6511 27.7067 25.3498 27.4562C25.9386 27.2461 26.4384 26.8417 26.7668 26.3097C26.9017 26.0941 27.0488 25.8864 27.2074 25.6875C27.5885 25.241 27.9103 24.7469 28.1645 24.2177C28.6102 23.2412 28.9812 22.2377 29.3355 21.2265C29.4607 20.866 29.4973 20.4808 29.4424 20.1032C29.3754 19.5879 29.3213 19.0803 29.2466 18.5715C29.156 17.7899 28.8848 17.0402 28.4543 16.3816C28.2405 16.0659 28.0486 15.7375 27.8424 15.4167C27.547 14.9449 27.3136 14.4371 27.1481 13.9056C27.0502 13.6029 26.9639 13.295 26.8763 12.9884C26.8385 12.8273 26.7605 12.6784 26.6496 12.5556C26.638 12.5417 26.6227 12.5312 26.6056 12.5256C26.5884 12.5199 26.5699 12.5191 26.5523 12.5234C26.5347 12.5277 26.5187 12.5369 26.506 12.5499C26.4934 12.5628 26.4847 12.5791 26.4808 12.5968C26.4633 12.7288 26.4611 12.8624 26.4744 12.9949C26.5607 13.5436 26.647 14.0937 26.7552 14.6386C26.942 15.579 27.1816 16.5052 27.4508 17.425C27.6152 17.969 27.7096 18.5318 27.7317 19.0997C27.7386 19.553 27.7054 20.0061 27.6325 20.4536C27.5449 21.0552 27.4547 21.6555 27.3529 22.257C27.321 22.3862 27.2693 22.5096 27.1996 22.6229C27.1473 22.7127 27.0887 22.7988 27.0244 22.8805C26.5092 23.6354 25.9797 24.3864 25.4129 25.1066C25.222 25.3481 25.0012 25.5646 24.7559 25.7507C24.2883 26.0885 23.7866 26.3765 23.259 26.6099C23.0078 26.7284 22.7528 26.8405 22.5054 26.968C21.9379 27.2441 21.4502 27.6604 21.0884 28.1776C20.9622 28.3533 20.8213 28.5179 20.6672 28.6697C20.3464 29.0047 20.0231 29.3331 19.6933 29.6616C19.5384 29.8127 19.4046 29.9838 19.2952 30.1705C18.9835 30.7283 18.673 31.2861 18.3574 31.8451C18.1532 32.2035 18.0429 32.6076 18.0366 33.02ZM25.306 16.7319H25.2892C25.2892 16.4022 25.2892 16.0724 25.2892 15.7426C25.2731 15.2272 25.1789 14.7173 25.0097 14.2303C24.7916 13.5862 24.5738 12.942 24.3566 12.2979C24.3327 12.2197 24.2999 12.1445 24.2587 12.0738C24.2486 12.0507 24.2312 12.0315 24.2092 12.0193C24.1872 12.0071 24.1618 12.0024 24.1368 12.0061C24.1119 12.0097 24.0889 12.0215 24.0713 12.0396C24.0538 12.0576 24.0426 12.081 24.0397 12.106C24.0171 12.1849 24.0041 12.2662 24.001 12.3482C23.992 12.477 23.9907 12.6161 23.9881 12.7501C23.9628 13.2241 23.9914 13.6995 24.0732 14.1671C24.1536 14.5818 24.1924 15.0034 24.1891 15.4257C24.1918 16.075 24.1257 16.7227 23.992 17.358C23.8785 17.9153 23.6431 18.4405 23.3028 18.8961C22.9546 19.3709 22.5266 19.7815 22.0378 20.1096C21.413 20.5257 20.7805 20.9328 20.1544 21.3476C19.8801 21.5292 19.6095 21.716 19.3442 21.9105C19.0137 22.1757 18.7491 22.5139 18.5712 22.8986C18.226 23.5543 17.8898 24.2138 17.5407 24.8669C17.286 25.3149 17.0722 25.7848 16.9017 26.2711C16.587 27.2262 16.5192 28.2455 16.7046 29.234C16.7243 29.3237 16.7559 29.4103 16.7987 29.4916C16.8101 29.5074 16.8253 29.5201 16.8428 29.5287C16.8603 29.5372 16.8797 29.5413 16.8992 29.5405C16.9362 29.5281 16.9677 29.503 16.988 29.4697C17.0022 29.4422 17.0097 29.4117 17.0099 29.3808C17.0602 28.9621 17.1078 28.5422 17.1581 28.1235C17.1846 27.7637 17.2717 27.4109 17.4157 27.0801C17.627 26.6447 17.8344 26.2067 18.0688 25.7841C18.4587 25.0549 18.9832 24.4062 19.6147 23.8725C20.0441 23.5195 20.4774 23.1717 20.9145 22.829C21.5619 22.336 22.2487 21.897 22.9679 21.5163C23.2107 21.3819 23.4463 21.2348 23.6738 21.0758C23.9039 20.9174 24.1005 20.7151 24.2522 20.4806C24.3656 20.3093 24.4828 20.1392 24.5884 19.9653C25.0844 19.1447 25.3704 18.2662 25.3086 17.2936C25.2957 17.1029 25.306 16.9174 25.306 16.7319ZM24.8731 5.22958C24.4214 5.22862 23.9759 5.33503 23.5733 5.54004C22.9988 5.817 22.4333 6.11457 21.8665 6.407C21.7732 6.45375 21.6866 6.51266 21.6088 6.58219C21.583 6.60061 21.5623 6.62522 21.5484 6.65375C21.5346 6.68229 21.5282 6.71383 21.5297 6.7455C21.5312 6.77717 21.5407 6.80795 21.5572 6.83501C21.5738 6.86207 21.5968 6.88454 21.6243 6.90038C22.0352 7.19795 22.4681 7.41566 23.004 7.25334C23.5669 7.08717 24.135 6.94031 24.7005 6.78186C25.4026 6.58606 26.0119 6.72905 26.4808 7.29714C26.7874 7.67072 27.0785 8.06105 27.3465 8.45653C27.5749 8.81167 27.8419 9.14044 28.1426 9.43685C28.6848 9.9305 29.3191 10.3122 30.0092 10.5602C30.3957 10.7083 30.7718 10.8719 31.1402 11.0548C31.7783 11.3709 32.371 11.7713 32.9025 12.2451C32.9637 12.2999 33.0297 12.349 33.0996 12.392C33.1232 12.413 33.1537 12.4246 33.1853 12.4246C33.2169 12.4246 33.2473 12.413 33.2709 12.392C33.3276 12.3392 33.2993 12.2786 33.2709 12.2232C33.2608 12.2052 33.2487 12.1883 33.2349 12.173C32.6371 11.4142 31.9595 10.7444 31.1119 10.2626C30.9599 10.175 30.8053 10.0938 30.6507 10.0049C30.1789 9.75024 29.7409 9.43734 29.3471 9.07358C28.936 8.696 28.588 8.255 28.3165 7.76734C28.2173 7.58699 28.1271 7.40149 28.0279 7.22114C27.6698 6.56673 27.1983 6.01925 26.5272 5.66499C26.0192 5.38805 25.4516 5.23863 24.8731 5.22958ZM21.2584 5.74486C21.2584 5.78351 21.2649 5.81314 21.27 5.84405C21.2881 5.97287 21.3551 6.02054 21.4865 5.98833C21.5757 5.96645 21.6621 5.93447 21.7441 5.893C21.8728 5.82839 21.9976 5.75612 22.1177 5.67659C22.5713 5.39191 23.0474 5.14462 23.5411 4.93716C24.0493 4.70974 24.5173 4.40176 24.9272 4.02511C25.1448 3.81638 25.4269 3.68783 25.7272 3.66055C26.0962 3.62341 26.4676 3.61652 26.8376 3.63994C27.6256 3.68501 28.3822 3.96398 29.0108 4.4412C29.2079 4.59063 29.3973 4.75423 29.5854 4.9101C29.9049 5.16775 30.223 5.42539 30.5438 5.68303C30.6002 5.72679 30.6639 5.76036 30.7319 5.78222C30.7514 5.78307 30.7709 5.77984 30.789 5.77274C30.8072 5.76564 30.8237 5.75483 30.8375 5.741C30.8467 5.72885 30.8529 5.7147 30.8556 5.6997C30.8583 5.6847 30.8574 5.66927 30.853 5.65469C30.7924 5.50095 30.6987 5.36241 30.5786 5.2489C30.0955 4.77098 29.6215 4.28275 29.1255 3.819C28.7451 3.4695 28.3007 3.19697 27.8167 3.01644C27.2838 2.82034 26.7225 2.71244 26.1549 2.69697C25.0574 2.64931 24.0538 2.92112 23.1856 3.6219C22.9859 3.78422 22.7837 3.94395 22.5917 4.11528C22.2465 4.42445 21.9077 4.74006 21.5612 5.05438C21.379 5.23861 21.2712 5.48354 21.2584 5.74228V5.74486ZM27.3362 4.88176C27.2228 4.87275 27.1533 4.90495 27.1288 4.96292C27.1137 4.99629 27.1101 5.03371 27.1185 5.06935C27.1269 5.10499 27.1468 5.13686 27.1752 5.16001C27.2952 5.27392 27.4245 5.37776 27.5616 5.47047C28.0627 5.7818 28.4815 6.20904 28.7828 6.71616C29.007 7.10262 29.2208 7.48909 29.4411 7.86911C29.7233 8.37638 30.1203 8.81051 30.6005 9.1367C30.8678 9.31171 31.1583 9.44831 31.4636 9.54248C31.8516 9.65695 32.1908 9.89655 32.4284 10.2239C32.8265 10.7753 33.24 11.3138 33.651 11.8548C33.7533 11.9838 33.8621 12.1077 33.9769 12.2258C33.9922 12.2383 34.01 12.2475 34.0291 12.2526C34.0482 12.2577 34.0681 12.2587 34.0877 12.2554C34.1482 12.2451 34.1649 12.1885 34.1585 12.1356C34.1479 12.0646 34.1306 11.9947 34.107 11.9269C33.9315 11.3981 33.6751 10.8997 33.3469 10.4494C32.9953 9.96759 32.6243 9.49997 32.2533 9.03235C31.9059 8.59541 31.4777 8.22935 30.9921 7.95413C30.5558 7.71739 30.1785 7.3854 29.8881 6.98282C29.7529 6.78959 29.6305 6.58992 29.5017 6.38896C29.3244 6.09854 29.0997 5.83989 28.8369 5.62377C28.4286 5.29528 27.9545 5.09947 27.4753 4.9101C27.4301 4.89504 27.3835 4.88468 27.3362 4.87919V4.88176ZM15.6779 9.23718C15.583 9.243 15.4884 9.25374 15.3945 9.26938C15.361 9.27711 15.3121 9.31962 15.3121 9.34667C15.3112 9.37091 15.3157 9.39504 15.3253 9.41732C15.3349 9.4396 15.3493 9.45947 15.3675 9.47549C15.4511 9.5175 15.5371 9.55449 15.6251 9.58628C15.6795 9.61342 15.7316 9.64487 15.781 9.68032C15.7879 9.68794 15.793 9.69696 15.796 9.70675C15.7991 9.71655 15.7999 9.72688 15.7986 9.73705C15.7972 9.74722 15.7937 9.75697 15.7882 9.76563C15.7827 9.7743 15.7754 9.78167 15.7668 9.78724C15.7305 9.80444 15.6919 9.81616 15.6522 9.82202C15.3752 9.84907 15.0983 9.8684 14.8213 9.9006C14.6903 9.91683 14.561 9.94442 14.4348 9.98305C14.4036 9.98676 14.3734 9.99703 14.3464 10.0132C14.3193 10.0293 14.296 10.051 14.2779 10.0767C14.2598 10.1025 14.2473 10.1318 14.2413 10.1627C14.2352 10.1936 14.2358 10.2255 14.2429 10.2561C14.2511 10.3894 14.2709 10.5218 14.3021 10.6516C14.3305 10.7804 14.3781 10.9093 14.4052 11.0381C14.4554 11.2841 14.4052 11.3949 14.1926 11.5315C13.9801 11.668 13.7199 11.8226 13.4816 11.9656C13.3308 12.0545 13.175 12.1343 13.0268 12.2232C13.0068 12.237 12.9903 12.2552 12.9784 12.2765C12.9666 12.2977 12.9598 12.3213 12.9585 12.3456C12.966 12.3684 12.979 12.389 12.9963 12.4056C13.0136 12.4222 13.0347 12.4344 13.0577 12.4409C13.1795 12.4577 13.3031 12.4577 13.4249 12.4409C13.5871 12.4114 13.7465 12.3683 13.9015 12.3121C14.203 12.2091 14.4992 12.088 14.8033 11.9888C15.9079 11.6201 16.9682 11.1297 17.9645 10.5267C18.0257 10.4913 18.082 10.448 18.132 10.3978C18.163 10.37 18.1863 10.3348 18.1998 10.2953C18.2133 10.2559 18.2164 10.2137 18.2089 10.1728C18.2014 10.1318 18.1836 10.0934 18.157 10.0613C18.1304 10.0292 18.0961 10.0045 18.0573 9.98949C17.9739 9.94798 17.8878 9.91226 17.7996 9.88257C17.1839 9.67903 16.5672 9.47764 15.9498 9.2784C15.8603 9.25779 15.7695 9.24401 15.6779 9.23718ZM15.9665 7.72998C15.8091 7.71703 15.6515 7.75063 15.5131 7.8266C15.0699 8.04173 14.6293 8.2633 14.1888 8.48616C13.9054 8.63043 13.725 8.88679 13.5241 9.11995C13.5075 9.13994 13.4955 9.16331 13.489 9.18843C13.4824 9.21355 13.4814 9.2398 13.4861 9.26534C13.4907 9.29088 13.5009 9.31508 13.516 9.33626C13.531 9.35743 13.5505 9.37506 13.573 9.3879C13.6067 9.41146 13.643 9.43092 13.6812 9.44587C13.9144 9.52831 14.1437 9.61977 14.3807 9.68805C14.6938 9.7808 14.8045 9.72154 14.9179 9.40593C15.0087 9.15404 15.1435 8.92026 15.316 8.71546C15.4937 8.5029 15.687 8.30194 15.8712 8.09583C15.9298 8.03864 15.9825 7.97562 16.0283 7.90775C16.0388 7.88601 16.0449 7.86242 16.0462 7.83832C16.0476 7.81422 16.0441 7.7901 16.0361 7.76734C16.0258 7.74029 15.9691 7.73127 15.9665 7.72998Z" fill="white"/>
<path fill-rule="evenodd" clip-rule="evenodd" d="M9.92676 29.0523C9.9276 28.6612 10.0042 28.2741 10.1522 27.9122C10.3209 27.491 10.4936 27.0736 10.6675 26.6536C10.8031 26.3088 10.9786 25.9811 11.1905 25.6772C11.2671 25.5676 11.3576 25.4684 11.4597 25.3822C11.975 24.9661 12.4903 24.5551 12.9991 24.1442C13.3688 23.8479 13.7566 23.5748 14.0992 23.2425C14.2141 23.1402 14.3378 23.0484 14.469 22.9681C14.4821 22.9614 14.4966 22.9582 14.5113 22.9585C14.526 22.9589 14.5403 22.9629 14.5531 22.9702C14.5659 22.9774 14.5766 22.9878 14.5844 23.0002C14.5922 23.0127 14.5968 23.0268 14.5978 23.0415C14.5958 23.1439 14.5855 23.246 14.5669 23.3468C14.4726 23.7926 14.2416 24.1979 13.906 24.5062C13.4925 24.9068 13.0764 25.3062 12.6719 25.7171C12.3147 26.0872 11.9643 26.4638 11.6207 26.8469C11.0662 27.4737 10.6571 28.2153 10.4227 29.0188C10.3382 29.3493 10.3347 29.6953 10.4124 30.0274C10.4216 30.0677 10.4387 30.1058 10.4626 30.1395C10.5451 30.276 10.6868 30.2799 10.7448 30.1318C10.829 29.9116 10.8988 29.6861 10.9535 29.4568C11.0376 29.0425 11.19 28.645 11.4043 28.2806C11.6866 27.8612 12.0438 27.4974 12.4581 27.2075C12.4758 27.1972 12.4949 27.1894 12.5148 27.1844C12.5856 27.1586 12.6758 27.2269 12.6539 27.2977C12.6194 27.4053 12.5763 27.51 12.5251 27.6108C12.3679 27.9341 12.2043 28.2549 12.0433 28.5782C11.6645 29.3322 11.2854 30.0863 10.9058 30.8403C10.8685 30.9126 10.8208 30.979 10.7641 31.0374C10.7513 31.0502 10.7359 31.0603 10.719 31.0668C10.7021 31.0733 10.6839 31.0762 10.6658 31.0752C10.6477 31.0742 10.63 31.0694 10.6138 31.0611C10.5977 31.0528 10.5835 31.0412 10.5721 31.0271C10.5377 30.9876 10.5079 30.9444 10.4833 30.8983C10.1816 30.3799 9.99527 29.8025 9.93706 29.2056C9.93191 29.1489 9.92805 29.087 9.92676 29.0523Z" fill="white"/>
<path fill-rule="evenodd" clip-rule="evenodd" d="M6 17.2449C6.02834 16.9628 6.04638 16.7168 6.07987 16.472C6.11336 16.2272 6.15587 15.9851 6.20869 15.7442C6.22693 15.6652 6.25922 15.5901 6.30402 15.5226C6.31689 15.5065 6.33378 15.494 6.35299 15.4865C6.37221 15.479 6.39306 15.4767 6.41345 15.4799C6.43383 15.483 6.45303 15.4915 6.4691 15.5044C6.48517 15.5173 6.49754 15.5343 6.50498 15.5535C6.52764 15.6317 6.53636 15.7132 6.53074 15.7944C6.51271 16.0082 6.48436 16.2221 6.45731 16.4385C6.42184 16.6933 6.42837 16.9523 6.47664 17.205C6.51271 17.3866 6.53203 17.5708 6.56423 17.7525C6.57839 17.8231 6.5733 17.8962 6.5495 17.9642C6.52571 18.0322 6.48408 18.0925 6.42897 18.1389C6.41817 18.15 6.40525 18.1589 6.39098 18.1649C6.37671 18.1709 6.36137 18.174 6.34588 18.174C6.33039 18.174 6.31506 18.1709 6.30079 18.1649C6.28652 18.1589 6.2736 18.15 6.26279 18.1389C6.19679 18.0633 6.14565 17.9759 6.11208 17.8813C6.05539 17.6597 6.03092 17.4343 6 17.2449Z" fill="white"/>
<path fill-rule="evenodd" clip-rule="evenodd" d="M11.1932 24.1176C11.1416 24.0347 11.0951 23.9486 11.0541 23.8599C11.0367 23.8121 11.0367 23.7596 11.0541 23.7118C11.0759 23.6681 11.1138 23.6344 11.1597 23.6178C11.1842 23.6087 11.2383 23.6409 11.2589 23.6693C11.3063 23.7175 11.3363 23.7802 11.3442 23.8473C11.3521 23.9144 11.3375 23.9823 11.3027 24.0403C11.2821 24.0699 11.2422 24.0854 11.1932 24.1176Z" fill="white"/>
<path fill-rule="evenodd" clip-rule="evenodd" d="M16.5154 10.7342C16.4703 10.7858 16.4407 10.845 16.3866 10.8721C16.0452 11.085 15.64 11.1716 15.2413 11.1168C15.1907 11.1119 15.1421 11.0947 15.0996 11.0666C15.0863 11.0531 15.0766 11.0365 15.0712 11.0183C15.0658 11.0001 15.065 10.9808 15.0687 10.9623C15.0863 10.9131 15.1154 10.8689 15.1537 10.8334C15.3222 10.6832 15.5305 10.5848 15.7535 10.5501C15.9765 10.5154 16.2049 10.5458 16.411 10.6376C16.4498 10.6652 16.4849 10.6977 16.5154 10.7342Z" fill="white"/>
<path d="M53.8357 25.92C58.2907 25.935 60.4507 24.585 60.4507 21.765C60.4507 18.165 56.8507 18.21 54.3157 17.79L52.9957 17.58C52.1407 17.445 52.0357 17.025 52.0357 16.815C52.0357 16.365 52.5007 16.005 53.7757 16.005C55.2607 16.005 55.9057 16.455 56.0407 17.19H60.0907C60.1957 13.44 57.6007 12.48 53.8807 12.48C49.7107 12.48 47.6857 14.04 47.6857 16.575C47.6857 19.965 50.7157 20.13 53.0857 20.505L54.7357 20.76C55.8757 20.91 55.9357 21.33 55.9357 21.57C55.9357 22.02 55.3057 22.41 53.8357 22.395C52.1257 22.365 51.4957 21.93 51.4657 21.18H47.4007C47.2657 24.555 49.3207 25.905 53.8357 25.92ZM75.0914 12.9H61.6214V16.68H66.0764V25.5H70.6214V16.68H75.0914V12.9ZM90.3124 25.5L88.1224 21.42C89.1274 20.67 89.8474 19.47 89.8474 17.82C89.8474 14.37 87.8374 12.9 84.2974 12.9H76.8874V25.5H81.4174V22.41H84.2674L85.8574 25.5H90.3124ZM81.4174 16.665H83.9674C84.8674 16.665 85.3024 17.115 85.3024 17.85C85.3024 18.585 84.8674 19.035 83.9674 19.035H81.4174V16.665ZM102.082 25.5H106.777L102.217 12.9H95.857L91.312 25.5H95.992L96.472 23.985H101.602L102.082 25.5ZM97.537 20.64L98.647 17.16H99.427L100.537 20.64H97.537ZM119.047 12.9H105.577V16.68H110.032V25.5H114.577V16.68H119.047V12.9ZM134.238 12.9H120.768V16.68H125.223V25.5H129.768V16.68H134.238V12.9ZM142.429 25.92C146.839 25.92 149.644 23.265 149.644 19.2C149.644 15.135 146.839 12.48 142.429 12.48C138.034 12.48 135.229 15.135 135.229 19.2C135.229 23.265 138.034 25.92 142.429 25.92ZM142.429 22.005C140.989 22.005 139.729 21.03 139.729 19.2C139.729 17.37 140.989 16.395 142.429 16.395C143.884 16.395 145.129 17.37 145.129 19.2C145.129 21.03 143.884 22.005 142.429 22.005ZM151.313 25.5H155.738V19.245H156.143L159.893 25.5H164.978V12.9H160.553V19.155H160.133L156.503 12.9H151.313V25.5ZM171.693 25.5H176.118V19.245H176.523L180.273 25.5H185.358V12.9H180.933V19.155H180.513L176.883 12.9H171.693V25.5ZM194.211 25.92C198.621 25.92 201.426 23.265 201.426 19.2C201.426 15.135 198.621 12.48 194.211 12.48C189.816 12.48 187.011 15.135 187.011 19.2C187.011 23.265 189.816 25.92 194.211 25.92ZM194.211 22.005C192.771 22.005 191.511 21.03 191.511 19.2C191.511 17.37 192.771 16.395 194.211 16.395C195.666 16.395 196.911 17.37 196.911 19.2C196.911 21.03 195.666 22.005 194.211 22.005ZM209.605 12.9H203.095V25.5H209.605C214.81 25.5 216.595 22.83 216.595 19.2C216.595 15.555 214.81 12.9 209.605 12.9ZM209.605 21.705H207.64L207.655 16.695H209.605C210.94 16.695 212.035 17.31 212.035 19.2C212.035 21.075 210.94 21.705 209.605 21.705ZM218.321 25.5H229.916V21.87H222.851V20.655H229.646V17.745H222.851V16.515H229.916V12.9H218.321V25.5ZM237.959 25.92C242.414 25.935 244.574 24.585 244.574 21.765C244.574 18.165 240.974 18.21 238.439 17.79L237.119 17.58C236.264 17.445 236.159 17.025 236.159 16.815C236.159 16.365 236.624 16.005 237.899 16.005C239.384 16.005 240.029 16.455 240.164 17.19H244.214C244.319 13.44 241.724 12.48 238.004 12.48C233.834 12.48 231.809 14.04 231.809 16.575C231.809 19.965 234.839 20.13 237.209 20.505L238.859 20.76C239.999 20.91 240.059 21.33 240.059 21.57C240.059 22.02 239.429 22.41 237.959 22.395C236.249 22.365 235.619 21.93 235.589 21.18H231.524C231.389 24.555 233.444 25.905 237.959 25.92Z" fill="white"/>
</g>
<defs>
<clipPath id="clip0_3442_20118">
<rect width="276" height="40" fill="white"/>
</clipPath>
</defs>
</svg>
