<svg width="24" height="24" viewBox="0 0 24 24" fill="none" xmlns="http://www.w3.org/2000/svg">
<circle cx="12" cy="12" r="12" fill="#002852"/>
<path fill-rule="evenodd" clip-rule="evenodd" d="M8.65425 19C8.58774 18.9505 8.54183 18.8782 8.52533 18.797C8.47356 18.6051 8.4228 18.4131 8.37306 18.2209C8.32687 18.0442 8.28423 17.8656 8.23703 17.6899C8.18261 17.5065 8.16858 17.3134 8.19591 17.124C8.23195 16.8956 8.26139 16.6672 8.29337 16.4372C8.3025 16.3728 8.31265 16.3083 8.31773 16.2439C8.33252 16.0232 8.39247 15.808 8.49386 15.6114C8.63497 15.3419 8.7776 15.0729 8.92428 14.8064C9.13594 14.4227 9.35217 14.0415 9.56637 13.6593C9.65193 13.5069 9.7121 13.3417 9.74453 13.17C9.83995 12.6797 9.94045 12.1909 10.0795 11.7107C10.133 11.5233 10.2103 11.3435 10.3095 11.1757C10.3957 11.029 10.4805 10.8808 10.5632 10.7326C10.5973 10.6727 10.6267 10.6103 10.6572 10.5483C10.8055 10.2583 11.0237 10.0097 11.2921 9.82504C11.4302 9.72353 11.5759 9.63673 11.7185 9.54283C12.1634 9.25279 12.5175 8.84326 12.7402 8.36119C12.8062 8.22008 12.8306 8.0668 12.8758 7.92011C12.9048 7.82223 12.8991 7.7173 12.8595 7.62317C12.8149 7.50186 12.7753 7.37801 12.7306 7.2562C12.7188 7.22207 12.7017 7.19004 12.6798 7.16128C12.6291 7.09834 12.5743 7.11052 12.5423 7.18463C12.5329 7.20704 12.5258 7.23034 12.521 7.25417C12.5158 7.27794 12.512 7.30201 12.5098 7.32624C12.487 7.57292 12.459 7.8191 12.4428 8.06578C12.4293 8.29086 12.3398 8.50469 12.189 8.67233C12.1464 8.72136 12.1001 8.76701 12.0505 8.80887C11.6596 9.13271 11.2789 9.46872 10.9028 9.80829C10.8492 9.858 10.793 9.90477 10.7343 9.94838C10.6248 10.0272 10.5414 10.137 10.4947 10.2636C10.4452 10.3791 10.3884 10.4913 10.3247 10.5996C10.1755 10.8742 10.0252 11.1483 9.88157 11.4259C9.75381 11.6673 9.56762 11.8729 9.33999 12.0239C9.29171 12.054 9.24588 12.088 9.20294 12.1254C9.15074 12.1771 9.08728 12.216 9.01754 12.239C8.9478 12.2621 8.87367 12.2687 8.80094 12.2584C8.69165 12.2458 8.58336 12.2289 8.47609 12.2076C8.30032 12.1758 8.12261 12.1558 7.94415 12.1477C7.8934 12.1447 7.8467 12.1477 7.79797 12.1477C7.70102 12.1477 7.60357 12.1477 7.50662 12.1401C7.30773 12.1234 7.11415 12.0673 6.93712 11.9751C6.86099 11.9371 6.78485 11.898 6.71125 11.8564C6.62065 11.8077 6.54912 11.7299 6.50822 11.6356C6.44218 11.4876 6.38721 11.3349 6.34376 11.1788C6.33345 11.1439 6.33085 11.1071 6.33615 11.0711C6.34204 11.0432 6.35449 11.017 6.37248 10.9948C6.39047 10.9726 6.41348 10.955 6.43961 10.9435C6.46573 10.9319 6.49423 10.9268 6.52276 10.9284C6.55128 10.93 6.579 10.9384 6.60364 10.9529C6.61774 10.9609 6.63115 10.9701 6.64374 10.9803C6.81011 11.0994 7.00868 11.1652 7.21324 11.1691C7.30229 11.1744 7.39163 11.1719 7.48023 11.1615C7.64633 11.1426 7.81456 11.1618 7.97207 11.2178C8.21419 11.3001 8.45376 11.3904 8.69435 11.4767C8.736 11.4928 8.77874 11.5058 8.82226 11.5158C8.84993 11.5211 8.87835 11.5211 8.90601 11.5158C8.91309 11.5129 8.91941 11.5084 8.92451 11.5027C8.92961 11.4969 8.93335 11.4902 8.93545 11.4828C8.93582 11.467 8.9312 11.4516 8.92225 11.4386C8.91921 11.4325 8.91007 11.4285 8.90246 11.4249C8.76135 11.3545 8.61991 11.2843 8.47813 11.2143C8.24221 11.1045 7.99556 11.0195 7.74214 10.9605C7.62793 10.9311 7.51322 10.9052 7.39952 10.8752C7.172 10.8132 6.95481 10.7181 6.7549 10.593C6.68846 10.5526 6.63143 10.4985 6.58765 10.4342C6.54388 10.37 6.51437 10.2971 6.50111 10.2204C6.46266 10.025 6.45632 9.82458 6.48233 9.62709C6.48996 9.55181 6.51498 9.47934 6.55541 9.41539C6.59584 9.35144 6.65058 9.29776 6.71531 9.25859C6.83281 9.18494 6.92684 9.07929 6.98636 8.95404C7.0158 8.89618 7.04777 8.83933 7.07772 8.78197C7.08741 8.76412 7.09589 8.74564 7.1031 8.72665C7.11046 8.712 7.11319 8.69547 7.11092 8.67924C7.10865 8.66301 7.1015 8.64786 7.09041 8.63579C7.07484 8.6225 7.05536 8.61467 7.03492 8.61348C7.01449 8.61229 6.99423 8.61781 6.97722 8.62919C6.9609 8.64109 6.94546 8.65415 6.93103 8.66827C6.86968 8.72233 6.79269 8.7554 6.71125 8.76268C6.67521 8.76624 6.63867 8.7703 6.60212 8.7703C6.52886 8.76775 6.45583 8.78001 6.38742 8.80633C6.32981 8.82738 6.26773 8.83315 6.20723 8.82309C6.20002 8.8227 6.19298 8.82078 6.18657 8.81746C6.18016 8.81414 6.17454 8.80949 6.17007 8.80382C6.16561 8.79815 6.1624 8.7916 6.16066 8.78459C6.15893 8.77758 6.15871 8.77029 6.16002 8.76319C6.16754 8.7108 6.19051 8.66185 6.22601 8.62259C6.37638 8.4401 6.5651 8.29297 6.77876 8.19166C7.00158 8.08405 7.22898 7.98863 7.45587 7.88711C7.70559 7.779 7.95735 7.67698 8.20657 7.56836C8.28014 7.5342 8.35091 7.49431 8.41823 7.44908C8.50022 7.39562 8.56813 7.32319 8.61619 7.23792C8.81008 6.90242 9.09991 6.67553 9.44607 6.5131C9.67943 6.40854 9.92058 6.32233 10.1673 6.25525C10.2846 6.22175 10.4029 6.1913 10.5171 6.15019C10.7383 6.06873 10.9443 5.9505 11.1262 5.80047C11.2095 5.73473 11.2641 5.63919 11.2784 5.53399C11.284 5.49744 11.2876 5.4614 11.2942 5.42537C11.317 5.28741 11.3892 5.16242 11.4972 5.07362C11.5268 5.0453 11.5654 5.0284 11.6063 5.0259C11.6147 5.0249 11.6233 5.02588 11.6313 5.02877C11.6392 5.03167 11.6464 5.03638 11.6522 5.04255C11.6581 5.04872 11.6624 5.05616 11.6648 5.06429C11.6672 5.07242 11.6677 5.081 11.6662 5.08935C11.6575 5.1287 11.643 5.16651 11.6231 5.20153C11.553 5.3203 11.4784 5.43653 11.4068 5.55683C11.3688 5.61926 11.3322 5.6822 11.2962 5.74616C11.2809 5.77476 11.2674 5.80425 11.2556 5.83447C11.2414 5.87051 11.2662 5.89944 11.3063 5.89183C11.3641 5.88529 11.4178 5.85913 11.4586 5.81772C11.4906 5.78169 11.5241 5.74565 11.5551 5.70859C11.6703 5.57155 11.788 5.43755 11.8977 5.29695C12.0073 5.15635 12.1043 5.0254 12.1961 4.88175C12.3544 4.63401 12.5792 4.43578 12.8448 4.30971C13.0404 4.20922 13.2442 4.12551 13.4539 4.05948C13.6989 3.97881 13.9635 3.98023 14.2077 4.06354C14.3716 4.12191 14.5386 4.17419 14.7 4.23967C14.9482 4.33291 15.1707 4.48374 15.3492 4.67974C15.4558 4.8024 15.5524 4.93344 15.638 5.07159C15.8659 5.43603 16.075 5.81163 16.2811 6.18825C16.3065 6.23444 16.3319 6.27962 16.3588 6.32632C16.4064 6.41252 16.4765 6.48412 16.5618 6.53341C16.7974 6.6798 16.993 6.88226 17.1313 7.1227C17.2304 7.29069 17.3095 7.46974 17.3668 7.65617C17.4019 7.7771 17.4171 7.90292 17.412 8.02873C17.4123 8.26439 17.4001 8.49989 17.3754 8.73426C17.3501 8.93229 17.3775 9.13351 17.4551 9.31747C17.5145 9.46009 17.5749 9.60171 17.6348 9.74383C17.7003 9.89709 17.7513 10.0561 17.7871 10.2189C17.8233 10.3898 17.8304 10.5655 17.8079 10.7387C17.7899 10.892 17.7818 11.0462 17.7835 11.2006C17.7835 11.2737 17.7835 11.3468 17.7835 11.4198C17.7871 11.831 17.6719 12.2132 17.4922 12.5781C17.3377 12.8825 17.1427 13.1646 16.9125 13.4167C16.5938 13.7808 16.2317 14.1047 15.8344 14.3811C15.5583 14.5672 15.2714 14.7366 14.9751 14.8886C14.9 14.9287 14.8316 14.98 14.7721 15.0409C14.6012 15.2202 14.44 15.4087 14.2894 15.6053C14.2467 15.6591 14.2036 15.7129 14.162 15.7683C14.1421 15.7936 14.1251 15.821 14.1112 15.85C14.109 15.8573 14.1086 15.865 14.11 15.8725C14.1114 15.88 14.1146 15.8871 14.1193 15.8931C14.1255 15.8977 14.1327 15.9008 14.1402 15.9022C14.1478 15.9036 14.1556 15.9033 14.163 15.9012C14.1815 15.8937 14.1986 15.8833 14.2137 15.8703C14.3772 15.7566 14.5391 15.6414 14.703 15.5292C15.0847 15.2683 15.4598 14.9967 15.8705 14.78C16.1084 14.6555 16.3325 14.5061 16.539 14.3344C16.6638 14.2328 16.7872 14.1252 16.9115 14.0207C16.9356 13.9989 16.9612 13.9788 16.9882 13.9608C16.9959 13.9553 17.0048 13.9515 17.0142 13.9497C17.0236 13.948 17.0332 13.9483 17.0425 13.9506C17.0557 13.9572 17.0618 13.9821 17.0668 14.0014C17.0685 14.0134 17.0676 14.0257 17.0643 14.0374C17.0333 14.1968 17.0044 14.3562 16.9694 14.5145C16.9389 14.6453 16.8875 14.7702 16.8171 14.8846C16.7379 15.017 16.6648 15.1521 16.5806 15.282C16.4682 15.4516 16.3266 15.6 16.1623 15.72C15.9705 15.8566 15.7605 15.9658 15.5385 16.0444C15.3355 16.1236 15.1365 16.2195 14.936 16.3073C14.8431 16.3479 14.7508 16.3895 14.6564 16.4266C14.5257 16.4734 14.3889 16.5008 14.2503 16.5078C14.06 16.5242 13.8688 16.5259 13.6782 16.5129C13.5188 16.4988 13.3599 16.5448 13.2326 16.6418C13.0646 16.7687 12.8996 16.9002 12.7326 17.0296C12.6108 17.1235 12.491 17.2225 12.3423 17.2737C12.2621 17.3011 12.1809 17.3275 12.0982 17.3478C11.6484 17.4568 11.1986 17.5649 10.7485 17.6722C10.7135 17.6808 10.6775 17.6874 10.6414 17.6935C10.3675 17.7337 10.105 17.8308 9.87092 17.9788C9.62017 18.1442 9.36334 18.3036 9.14762 18.5127C9.04255 18.6142 8.94459 18.7224 8.84307 18.83C8.78341 18.8902 8.72037 18.9469 8.65425 19ZM17.1211 11.5219C17.1211 11.3696 17.1186 11.2544 17.1211 11.1412C17.1211 11.0818 17.1486 11.0686 17.1998 11.0904C17.2181 11.0986 17.2353 11.1102 17.2541 11.1173C17.2614 11.1216 17.2696 11.124 17.278 11.1243C17.2864 11.1246 17.2948 11.1228 17.3023 11.1191C17.3099 11.1154 17.3164 11.1098 17.3213 11.103C17.3261 11.0961 17.3292 11.0881 17.3303 11.0798C17.3414 11.0326 17.3465 10.9841 17.3455 10.9356C17.3272 10.6845 17.3066 10.4338 17.2836 10.1834C17.2756 10.0491 17.2389 9.91807 17.176 9.79916C17.1282 9.71428 17.0759 9.6321 17.0191 9.55298C16.9176 9.40781 16.8039 9.26772 16.7024 9.12103C16.6182 9.00159 16.5251 8.88875 16.4237 8.78349C16.3155 8.66746 16.1965 8.56192 16.0684 8.46829C15.814 8.28589 15.5335 8.14284 15.2365 8.04396C15.1091 8.00132 14.9827 7.95716 14.8579 7.90945C14.6388 7.83217 14.4376 7.7113 14.2665 7.55414C14.2161 7.50708 14.1616 7.46462 14.1036 7.42725C14.0691 7.40652 14.0314 7.39192 13.9919 7.38411C13.9447 7.37294 13.9148 7.40898 13.9254 7.45669C13.9364 7.50033 13.959 7.54016 13.9909 7.57191C14.0483 7.63485 14.1026 7.70033 14.161 7.76225C14.2807 7.88914 14.3965 8.02061 14.5239 8.13938C14.7298 8.32313 14.9493 8.49094 15.1807 8.64137C15.3351 8.74147 15.4592 8.88189 15.5395 9.04743C15.6075 9.19006 15.6918 9.32559 15.7644 9.46517C15.8334 9.59409 15.904 9.722 15.9674 9.85347C16.1144 10.1413 16.1677 10.4678 16.1197 10.7874C16.1106 10.8473 16.1075 10.9087 16.1029 10.9691C16.0842 11.2326 16.0649 11.4955 16.0476 11.7589C16.0432 11.8401 16.0243 11.9199 15.9918 11.9944C15.8035 12.4152 15.5746 12.8096 15.2558 13.1487C15.1162 13.3061 15.0012 13.4837 14.9147 13.6755C14.769 13.976 14.6792 14.2973 14.5594 14.6069C14.5497 14.6418 14.5481 14.6784 14.5548 14.714C14.5555 14.7233 14.5584 14.7322 14.5635 14.7399C14.5685 14.7477 14.5755 14.7541 14.5837 14.7584C14.5919 14.7627 14.601 14.7649 14.6103 14.7646C14.6195 14.7644 14.6286 14.7619 14.6366 14.7572C14.684 14.7333 14.723 14.6953 14.7482 14.6485L14.8472 14.4805C14.9545 14.2896 15.0746 14.1061 15.2066 13.9313C15.3375 13.7649 15.4888 13.6182 15.6319 13.4628C15.6467 13.4483 15.6639 13.4365 15.6827 13.4278C15.6902 13.4226 15.699 13.4193 15.7081 13.4183C15.7173 13.4173 15.7265 13.4186 15.735 13.4221C15.7436 13.4256 15.7511 13.4311 15.7569 13.4382C15.7627 13.4454 15.7667 13.4538 15.7685 13.4628C15.7791 13.4979 15.7847 13.5344 15.7964 13.5689C15.798 13.5813 15.8031 13.5929 15.811 13.6026C15.8189 13.6122 15.8293 13.6195 15.8411 13.6236C15.8528 13.6277 15.8655 13.6285 15.8777 13.6258C15.8899 13.6231 15.9011 13.6172 15.9101 13.6085C15.9421 13.5865 15.971 13.5602 15.9958 13.5304C16.0872 13.4217 16.1776 13.3116 16.2659 13.2004C16.4774 12.9334 16.6885 12.6658 16.8993 12.3974C17.0217 12.2493 17.0929 12.0655 17.1024 11.8736C17.1085 11.7411 17.1166 11.6117 17.1211 11.5219ZM10.7429 16.4195C10.739 16.4967 10.7514 16.5738 10.7795 16.6459C10.7826 16.6563 10.7886 16.6656 10.7969 16.6726C10.8052 16.6796 10.8153 16.6841 10.8261 16.6854C10.8369 16.6867 10.8478 16.6849 10.8575 16.6802C10.8673 16.6754 10.8754 16.6679 10.881 16.6585C10.911 16.6206 10.9361 16.579 10.9556 16.5347C11.0282 16.3586 11.0957 16.1794 11.1678 16.0038C11.2464 15.8108 11.3776 15.6437 11.5464 15.5216C11.7723 15.3561 11.9941 15.1856 12.222 15.0231C12.425 14.8795 12.6281 14.7389 12.8362 14.6069C13.085 14.4532 13.3492 14.326 13.6244 14.2273C13.8565 14.1444 14.0534 13.9851 14.1828 13.7755C14.2359 13.6906 14.2939 13.6087 14.3564 13.5304C14.5066 13.3544 14.6333 13.1597 14.7335 12.9512C14.9091 12.5665 15.0553 12.1711 15.1949 11.7726C15.2442 11.6306 15.2587 11.4788 15.237 11.33C15.2106 11.127 15.1893 10.927 15.1599 10.7265C15.1242 10.4185 15.0173 10.1231 14.8477 9.86362C14.7634 9.73926 14.6878 9.60983 14.6066 9.48344C14.4902 9.29757 14.3982 9.09745 14.333 8.88805C14.2944 8.76877 14.2604 8.64746 14.2259 8.52666C14.211 8.46318 14.1803 8.40451 14.1366 8.35611C14.132 8.35062 14.126 8.34652 14.1192 8.34429C14.1125 8.34205 14.1052 8.34176 14.0983 8.34345C14.0913 8.34514 14.085 8.34875 14.08 8.35386C14.0751 8.35897 14.0716 8.36538 14.0701 8.37236C14.0632 8.42436 14.0623 8.477 14.0676 8.5292C14.1016 8.74543 14.1356 8.96216 14.1782 9.17687C14.2518 9.5474 14.3462 9.91235 14.4523 10.2748C14.5171 10.4891 14.5542 10.7108 14.563 10.9346C14.5657 11.1132 14.5526 11.2917 14.5239 11.4681C14.4894 11.7051 14.4538 11.9416 14.4137 12.1787C14.4012 12.2296 14.3808 12.2782 14.3533 12.3228C14.3327 12.3582 14.3096 12.3921 14.2843 12.4243C14.0813 12.7218 13.8727 13.0177 13.6493 13.3014C13.5741 13.3966 13.4871 13.4819 13.3905 13.5552C13.2062 13.6883 13.0085 13.8018 12.8006 13.8938C12.7017 13.9405 12.6012 13.9846 12.5037 14.0349C12.2801 14.1437 12.0879 14.3077 11.9454 14.5115C11.8957 14.5807 11.8401 14.6456 11.7794 14.7054C11.653 14.8374 11.5256 14.9668 11.3957 15.0962C11.3347 15.1558 11.2819 15.2232 11.2388 15.2967C11.116 15.5165 10.9937 15.7363 10.8693 15.9566C10.7889 16.0978 10.7454 16.257 10.7429 16.4195ZM13.6072 10.0017H13.6006C13.6006 9.87174 13.6006 9.7418 13.6006 9.61186C13.5942 9.4088 13.5571 9.20788 13.4904 9.01596C13.4045 8.76218 13.3187 8.50839 13.2331 8.2546C13.2237 8.22376 13.2108 8.19413 13.1945 8.16628C13.1906 8.15718 13.1837 8.14963 13.175 8.14481C13.1664 8.13999 13.1563 8.13815 13.1465 8.1396C13.1367 8.14104 13.1276 8.14568 13.1207 8.1528C13.1138 8.15992 13.1094 8.16911 13.1082 8.17897C13.0994 8.21005 13.0942 8.24209 13.093 8.27439C13.0895 8.32515 13.089 8.37997 13.0879 8.43276C13.078 8.61954 13.0892 8.80685 13.1214 8.99109C13.1531 9.15446 13.1684 9.32059 13.1671 9.487C13.1682 9.74281 13.1421 9.99802 13.0895 10.2484C13.0447 10.4679 12.952 10.6749 12.8179 10.8544C12.6807 11.0415 12.5121 11.2032 12.3195 11.3325C12.0733 11.4965 11.8241 11.6569 11.5774 11.8203C11.4693 11.8919 11.3627 11.9655 11.2581 12.0421C11.1279 12.1466 11.0237 12.2799 10.9536 12.4314C10.8175 12.6898 10.6851 12.9497 10.5475 13.207C10.4472 13.3835 10.3629 13.5687 10.2958 13.7603C10.1718 14.1366 10.145 14.5383 10.2181 14.9277C10.2258 14.9631 10.2383 14.9972 10.2552 15.0292C10.2597 15.0355 10.2656 15.0405 10.2725 15.0438C10.2794 15.0472 10.2871 15.0488 10.2947 15.0485C10.3093 15.0436 10.3217 15.0337 10.3298 15.0206C10.3354 15.0098 10.3383 14.9978 10.3384 14.9856C10.3582 14.8206 10.377 14.6551 10.3968 14.4902C10.4072 14.3484 10.4415 14.2094 10.4983 14.079C10.5815 13.9075 10.6632 13.7349 10.7556 13.5684C10.9092 13.2811 11.1159 13.0255 11.3647 12.8152C11.5339 12.6761 11.7046 12.5391 11.8769 12.404C12.132 12.2098 12.4026 12.0368 12.6859 11.8868C12.7816 11.8338 12.8745 11.7759 12.9641 11.7132C13.0548 11.6508 13.1322 11.5711 13.192 11.4787C13.2367 11.4112 13.2828 11.3442 13.3245 11.2757C13.5199 10.9524 13.6326 10.6062 13.6082 10.223C13.6031 10.1479 13.6072 10.0748 13.6072 10.0017ZM13.4366 5.46953C13.2586 5.46915 13.0831 5.51107 12.9245 5.59185C12.6981 5.70098 12.4753 5.81823 12.252 5.93345C12.2152 5.95187 12.1811 5.97509 12.1504 6.00248C12.1403 6.00974 12.1321 6.01944 12.1266 6.03068C12.1212 6.04192 12.1187 6.05435 12.1193 6.06683C12.1199 6.07931 12.1236 6.09143 12.1301 6.1021C12.1366 6.11276 12.1457 6.12161 12.1565 6.12785C12.3185 6.2451 12.489 6.33088 12.7001 6.26693C12.922 6.20145 13.1458 6.14359 13.3686 6.08116C13.6453 6.004 13.8853 6.06035 14.0701 6.28419C14.1909 6.43138 14.3056 6.58518 14.4112 6.74101C14.5012 6.88094 14.6064 7.01048 14.7249 7.12727C14.9385 7.32178 15.1884 7.47219 15.4604 7.56988C15.6126 7.62825 15.7608 7.69271 15.906 7.76479C16.1574 7.88933 16.391 8.04707 16.6004 8.23379C16.6245 8.25536 16.6505 8.27472 16.678 8.29165C16.6873 8.29993 16.6993 8.3045 16.7118 8.3045C16.7242 8.3045 16.7362 8.29993 16.7455 8.29165C16.7679 8.27084 16.7567 8.24699 16.7455 8.22516C16.7416 8.21805 16.7368 8.21141 16.7313 8.20536C16.4958 7.9064 16.2288 7.64246 15.8948 7.45263C15.8349 7.41811 15.774 7.38614 15.7131 7.35111C15.5272 7.25075 15.3547 7.12747 15.1995 6.98413C15.0375 6.83536 14.9004 6.6616 14.7934 6.46945C14.7543 6.39839 14.7188 6.3253 14.6797 6.25424C14.5386 5.99639 14.3528 5.78067 14.0884 5.64109C13.8882 5.53197 13.6646 5.47309 13.4366 5.46953ZM12.0124 5.67256C12.0124 5.68778 12.0149 5.69946 12.017 5.71164C12.0241 5.7624 12.0504 5.78118 12.1022 5.76849C12.1374 5.75987 12.1714 5.74727 12.2037 5.73093C12.2545 5.70547 12.3036 5.67699 12.3509 5.64566C12.5297 5.53349 12.7173 5.43605 12.9118 5.35431C13.112 5.2647 13.2964 5.14335 13.458 4.99494C13.5437 4.9127 13.6548 4.86205 13.7732 4.8513C13.9185 4.83667 14.0649 4.83395 14.2107 4.84318C14.5212 4.86094 14.8193 4.97085 15.067 5.15889C15.1446 5.21777 15.2193 5.28223 15.2934 5.34365C15.4192 5.44516 15.5446 5.54668 15.671 5.64819C15.6932 5.66544 15.7183 5.67866 15.7451 5.68728C15.7528 5.68761 15.7605 5.68634 15.7676 5.68354C15.7748 5.68075 15.7813 5.67649 15.7867 5.67103C15.7903 5.66625 15.7928 5.66067 15.7938 5.65476C15.7949 5.64885 15.7946 5.64277 15.7928 5.63703C15.7689 5.57645 15.732 5.52187 15.6847 5.47714C15.4944 5.28883 15.3076 5.09646 15.1122 4.91373C14.9623 4.77602 14.7872 4.66864 14.5965 4.59751C14.3865 4.52024 14.1653 4.47772 13.9417 4.47163C13.5092 4.45285 13.1138 4.55995 12.7717 4.83607C12.693 4.90002 12.6134 4.96296 12.5377 5.03047C12.4017 5.15229 12.2682 5.27665 12.1317 5.4005C12.0599 5.47308 12.0174 5.56959 12.0124 5.67154V5.67256ZM14.4071 5.33248C14.3625 5.32893 14.3351 5.34162 14.3254 5.36446C14.3195 5.37761 14.318 5.39235 14.3214 5.40639C14.3247 5.42043 14.3325 5.43299 14.3437 5.44212C14.391 5.487 14.4419 5.52791 14.496 5.56444C14.6934 5.68711 14.8584 5.85545 14.9771 6.05527C15.0655 6.20754 15.1497 6.35982 15.2365 6.50955C15.3477 6.70943 15.5041 6.88048 15.6933 7.00901C15.7986 7.07796 15.9131 7.13179 16.0334 7.16889C16.1863 7.21399 16.32 7.3084 16.4136 7.4374C16.5704 7.65464 16.7334 7.86681 16.8953 8.07999C16.9356 8.13083 16.9785 8.17962 17.0237 8.22618C17.0297 8.23111 17.0367 8.23471 17.0443 8.23672C17.0518 8.23873 17.0597 8.23912 17.0673 8.23785C17.0912 8.23379 17.0978 8.21146 17.0953 8.19064C17.0911 8.16266 17.0843 8.13513 17.075 8.10842C17.0058 7.90005 16.9048 7.70365 16.7755 7.52623C16.6369 7.33639 16.4907 7.15214 16.3446 6.96789C16.2077 6.79573 16.039 6.65149 15.8476 6.54305C15.6757 6.44977 15.5271 6.31896 15.4126 6.16034C15.3593 6.0842 15.3111 6.00553 15.2604 5.92634C15.1905 5.81191 15.102 5.71 14.9985 5.62484C14.8376 5.49541 14.6508 5.41826 14.4619 5.34365C14.4441 5.33771 14.4258 5.33363 14.4071 5.33146V5.33248ZM9.81356 7.0486C9.77614 7.05089 9.73887 7.05512 9.70189 7.06129C9.6887 7.06433 9.66941 7.08108 9.66941 7.09174C9.66906 7.10129 9.67083 7.1108 9.67461 7.11958C9.67838 7.12836 9.68406 7.13618 9.69123 7.1425C9.72418 7.15905 9.75807 7.17362 9.79275 7.18615C9.81418 7.19684 9.83471 7.20923 9.85417 7.2232C9.85687 7.22621 9.85889 7.22976 9.86009 7.23362C9.86129 7.23748 9.86163 7.24155 9.8611 7.24556C9.86057 7.24956 9.85917 7.25341 9.85701 7.25682C9.85485 7.26023 9.85198 7.26314 9.84858 7.26533C9.83429 7.27211 9.81906 7.27673 9.80341 7.27904C9.69428 7.2897 9.58515 7.29731 9.47602 7.31C9.42442 7.3164 9.37347 7.32726 9.32375 7.34248C9.31143 7.34395 9.29955 7.34799 9.28889 7.35435C9.27824 7.36071 9.26904 7.36925 9.26191 7.3794C9.25477 7.38955 9.24986 7.4011 9.24748 7.41328C9.2451 7.42546 9.24532 7.438 9.24812 7.45009C9.25134 7.50261 9.25916 7.55475 9.27147 7.60592C9.28263 7.65667 9.30141 7.70743 9.31207 7.75819C9.33187 7.85514 9.31207 7.89879 9.22832 7.95259C9.14457 8.00639 9.04204 8.0673 8.94814 8.12364C8.88875 8.15867 8.82734 8.19014 8.76897 8.22516C8.76109 8.2306 8.75456 8.23777 8.7499 8.24613C8.74523 8.2545 8.74255 8.26382 8.74206 8.27338C8.74502 8.28236 8.75012 8.29047 8.75694 8.29702C8.76375 8.30357 8.77206 8.30835 8.78115 8.31094C8.82914 8.31753 8.87781 8.31753 8.92581 8.31094C8.98971 8.29929 9.05254 8.28231 9.11361 8.26018C9.23238 8.21958 9.34913 8.17186 9.46891 8.13278C9.90418 7.98751 10.3219 7.79429 10.7145 7.55668C10.7386 7.54273 10.7608 7.52567 10.7805 7.50592C10.7927 7.49497 10.8019 7.48106 10.8072 7.46553C10.8125 7.45001 10.8138 7.43337 10.8108 7.41723C10.8079 7.40109 10.8008 7.38597 10.7904 7.37333C10.7799 7.36069 10.7664 7.35094 10.7511 7.34502C10.7182 7.32867 10.6843 7.31459 10.6495 7.30289C10.4069 7.2227 10.164 7.14334 9.92066 7.06484C9.88542 7.05672 9.84962 7.05129 9.81356 7.0486ZM9.92726 6.45473C9.86526 6.44963 9.80312 6.46287 9.74859 6.4928C9.57398 6.57757 9.40039 6.66487 9.2268 6.75268C9.11513 6.80953 9.04407 6.91054 8.96489 7.00241C8.95836 7.01028 8.95364 7.01949 8.95105 7.02939C8.94847 7.03929 8.94808 7.04963 8.94992 7.05969C8.95176 7.06976 8.95578 7.07929 8.96169 7.08764C8.96761 7.09598 8.97529 7.10292 8.98418 7.10798C8.99743 7.11727 9.01174 7.12494 9.02682 7.13082C9.11869 7.16331 9.20904 7.19935 9.30243 7.22625C9.42577 7.26279 9.46942 7.23945 9.51409 7.11509C9.54987 7.01584 9.60297 6.92372 9.67093 6.84303C9.74098 6.75928 9.81711 6.6801 9.8897 6.59888C9.9128 6.57635 9.93355 6.55152 9.95162 6.52478C9.95575 6.51621 9.95815 6.50691 9.95867 6.49742C9.95919 6.48792 9.95783 6.47842 9.95467 6.46945C9.9506 6.45879 9.92827 6.45524 9.92726 6.45473Z" fill="#FFF5DD"/>
<path fill-rule="evenodd" clip-rule="evenodd" d="M7.54688 14.8561C7.54721 14.7021 7.57737 14.5495 7.6357 14.4069C7.70219 14.241 7.77021 14.0765 7.83873 13.911C7.89217 13.7752 7.96134 13.6461 8.04481 13.5263C8.07499 13.4831 8.11065 13.444 8.15089 13.41C8.35392 13.2461 8.55695 13.0842 8.75745 12.9223C8.90312 12.8055 9.0559 12.6979 9.19092 12.567C9.23617 12.5267 9.28492 12.4905 9.33659 12.4589C9.34175 12.4562 9.34749 12.4549 9.35327 12.4551C9.35906 12.4552 9.36472 12.4568 9.36975 12.4597C9.37477 12.4625 9.37901 12.4666 9.38208 12.4715C9.38516 12.4764 9.38697 12.482 9.38735 12.4878C9.38658 12.5281 9.38251 12.5684 9.37517 12.6081C9.33801 12.7837 9.24699 12.9434 9.11478 13.0649C8.95185 13.2228 8.7879 13.3801 8.62852 13.542C8.48775 13.6879 8.34969 13.8362 8.21434 13.9872C7.99585 14.2342 7.83465 14.5264 7.74229 14.8429C7.70899 14.9732 7.70759 15.1095 7.73823 15.2404C7.74185 15.2563 7.74858 15.2713 7.75803 15.2845C7.79051 15.3383 7.84634 15.3399 7.86919 15.2815C7.9024 15.1947 7.92986 15.1059 7.95141 15.0155C7.98457 14.8523 8.0446 14.6957 8.12907 14.5521C8.24029 14.3868 8.38105 14.2435 8.54426 14.1293C8.55124 14.1252 8.55876 14.1221 8.5666 14.1201C8.59451 14.11 8.63004 14.1369 8.62142 14.1648C8.60782 14.2072 8.59085 14.2485 8.57066 14.2882C8.50873 14.4156 8.44427 14.5419 8.38082 14.6693C8.2316 14.9664 8.0822 15.2636 7.93263 15.5607C7.91796 15.5892 7.89914 15.6153 7.8768 15.6383C7.87176 15.6434 7.8657 15.6473 7.85903 15.6499C7.85236 15.6525 7.84522 15.6536 7.83808 15.6532C7.83094 15.6528 7.82396 15.6509 7.8176 15.6477C7.81124 15.6444 7.80564 15.6398 7.80117 15.6343C7.78761 15.6187 7.77586 15.6017 7.76615 15.5835C7.64728 15.3792 7.57387 15.1517 7.55093 14.9165C7.5489 14.8942 7.54738 14.8698 7.54688 14.8561Z" fill="#FFF5DD"/>
<path fill-rule="evenodd" clip-rule="evenodd" d="M6 10.2038C6.01117 10.0927 6.01827 9.9957 6.03147 9.89926C6.04467 9.80283 6.06142 9.7074 6.08223 9.61248C6.08942 9.58137 6.10214 9.5518 6.11979 9.52518C6.12486 9.51883 6.13152 9.51393 6.13909 9.51097C6.14666 9.50802 6.15487 9.50711 6.16291 9.50835C6.17094 9.50959 6.1785 9.51292 6.18483 9.51801C6.19117 9.52311 6.19604 9.52978 6.19897 9.53736C6.2079 9.56816 6.21134 9.60029 6.20912 9.63228C6.20202 9.71654 6.19085 9.80079 6.18019 9.88607C6.16621 9.98648 6.16878 10.0885 6.1878 10.1881C6.20202 10.2596 6.20963 10.3322 6.22232 10.4038C6.2279 10.4316 6.22589 10.4604 6.21651 10.4872C6.20714 10.514 6.19074 10.5378 6.16902 10.5561C6.16477 10.5604 6.15968 10.5639 6.15405 10.5663C6.14843 10.5687 6.14239 10.5699 6.13628 10.5699C6.13018 10.5699 6.12414 10.5687 6.11852 10.5663C6.11289 10.5639 6.1078 10.5604 6.10355 10.5561C6.07754 10.5263 6.05739 10.4918 6.04416 10.4546C6.02183 10.3673 6.01218 10.2784 6 10.2038Z" fill="#FFF5DD"/>
<path fill-rule="evenodd" clip-rule="evenodd" d="M8.0463 12.9114C8.02594 12.8787 8.00764 12.8448 7.99148 12.8099C7.98461 12.791 7.98461 12.7704 7.99148 12.7515C8.00009 12.7343 8.01499 12.721 8.0331 12.7145C8.04274 12.7109 8.06406 12.7236 8.07218 12.7348C8.09084 12.7538 8.10266 12.7785 8.10578 12.8049C8.1089 12.8314 8.10316 12.8581 8.08944 12.881C8.08132 12.8926 8.06558 12.8987 8.0463 12.9114Z" fill="#FFF5DD"/>
<path fill-rule="evenodd" clip-rule="evenodd" d="M10.1432 7.63861C10.1254 7.65891 10.1137 7.68226 10.0924 7.69292C9.95792 7.77682 9.79826 7.81094 9.6412 7.78936C9.62125 7.78741 9.60208 7.78062 9.58536 7.76956C9.58012 7.76423 9.57627 7.75769 9.57415 7.75052C9.57202 7.74335 9.57169 7.73577 9.57318 7.72845C9.58009 7.70907 9.59158 7.69166 9.60668 7.67769C9.67306 7.6185 9.75512 7.57973 9.843 7.56605C9.93088 7.55236 10.0208 7.56434 10.1021 7.60054C10.1174 7.61141 10.1312 7.6242 10.1432 7.63861Z" fill="#FFF5DD"/>
</svg>
