<svg width="468" height="48" viewBox="0 0 468 48" fill="none" xmlns="http://www.w3.org/2000/svg">
<path d="M291.091 9.90918L272.909 28.091M272.909 9.90918L291.091 28.091L272.909 9.90918Z" stroke="white" stroke-linecap="round" stroke-linejoin="round"/>
<g clip-path="url(#clip0_3442_20260)">
<path d="M361.498 13.6416H363.085L367.526 23.951H365.429L364.468 21.5921H359.998L359.066 23.951H357.013L361.498 13.6416ZM363.827 20.0194L362.24 15.8258L360.624 20.0194H363.827Z" fill="white"/>
<path d="M369.494 13.6416H371.606L374.416 21.4319L377.313 13.6416H379.294L375.129 23.951H373.542L369.494 13.6416Z" fill="white"/>
<path d="M385.851 13.6416H387.438L391.879 23.951H389.782L388.822 21.5921H384.351L383.419 23.951H381.366L385.851 13.6416ZM388.181 20.0194L386.594 15.8258L384.977 20.0194H388.181Z" fill="white"/>
<path d="M395.938 13.6416H397.772V22.291H402.155V23.951H395.938V13.6416Z" fill="white"/>
<path d="M409.735 13.6416H411.322L415.763 23.951H413.666L412.705 21.5921H408.235L407.303 23.951H405.25L409.735 13.6416ZM412.065 20.0194L410.477 15.8258L408.861 20.0194H412.065Z" fill="white"/>
<path d="M419.821 13.6416H422.253L427.247 21.3008H427.277V13.6416H429.111V23.951H426.782L421.685 16.0442H421.656V23.951H419.821V13.6416Z" fill="white"/>
<path d="M441.4 16.0587C441.021 15.6509 440.652 15.3791 440.293 15.2432C439.944 15.1074 439.589 15.0394 439.23 15.0394C438.696 15.0394 438.211 15.1365 437.774 15.3306C437.347 15.515 436.978 15.7771 436.667 16.1169C436.357 16.447 436.114 16.8353 435.939 17.2818C435.774 17.7284 435.692 18.2089 435.692 18.7234C435.692 19.2767 435.774 19.7863 435.939 20.2523C436.114 20.7183 436.357 21.1211 436.667 21.4609C436.978 21.8007 437.347 22.0676 437.774 22.2618C438.211 22.4559 438.696 22.553 439.23 22.553C439.647 22.553 440.05 22.4559 440.439 22.2618C440.836 22.0579 441.205 21.7376 441.545 21.3007L443.06 22.3783C442.594 23.019 442.026 23.4849 441.356 23.7762C440.686 24.0674 439.972 24.213 439.216 24.213C438.419 24.213 437.686 24.0868 437.017 23.8344C436.357 23.5723 435.784 23.2082 435.299 22.7423C434.823 22.2666 434.449 21.6987 434.177 21.0386C433.905 20.3785 433.77 19.6456 433.77 18.8399C433.77 18.0147 433.905 17.2673 434.177 16.5974C434.449 15.9179 434.823 15.3403 435.299 14.8647C435.784 14.389 436.357 14.025 437.017 13.7726C437.686 13.5104 438.419 13.3794 439.216 13.3794C439.914 13.3794 440.56 13.5056 441.152 13.758C441.754 14.0007 442.312 14.4181 442.827 15.0103L441.4 16.0587Z" fill="white"/>
<path d="M447.203 13.6416H449.037V17.7479H453.857V13.6416H455.692V23.951H453.857V19.4079H449.037V23.951H447.203V13.6416Z" fill="white"/>
<path d="M460.908 13.6416H467.737V15.3016H462.743V17.8352H467.475V19.4952H462.743V22.291H468V23.951H460.908V13.6416Z" fill="white"/>
<path fill-rule="evenodd" clip-rule="evenodd" d="M336.795 33.5748C344.962 33.5748 351.583 26.9543 351.583 18.7874C351.583 10.6206 344.962 4 336.795 4C328.628 4 322.008 10.6206 322.008 18.7874C322.008 26.9543 328.628 33.5748 336.795 33.5748ZM332.327 25.4868H328.858C328.036 25.4868 327.624 25.4868 327.378 25.3275C327.112 25.1554 326.944 24.8665 326.926 24.5503C326.91 24.2576 327.113 23.9007 327.521 23.1871L327.521 23.1868L335.116 9.88091C335.529 9.15667 335.736 8.79455 335.999 8.65975C336.283 8.51412 336.62 8.51387 336.905 8.65911C337.168 8.7935 337.375 9.15534 337.789 9.87895L339.541 12.9374L339.541 12.9374C339.843 13.4636 339.993 13.7267 340.059 14.0042C340.132 14.3064 340.132 14.6212 340.06 14.9234C339.994 15.2011 339.843 15.4644 339.542 15.9908L335.001 23.9362C334.695 24.4704 334.543 24.7375 334.333 24.9371C334.106 25.1544 333.83 25.3146 333.528 25.4044C333.251 25.4868 332.943 25.4868 332.327 25.4868ZM344.703 25.4868H340.682C339.852 25.4868 339.437 25.4868 339.19 25.3261C338.923 25.1525 338.755 24.8615 338.739 24.5437C338.725 24.2496 338.934 23.8912 339.351 23.1747L341.359 19.7303C341.771 19.0228 341.978 18.669 342.239 18.5365C342.521 18.3933 342.854 18.3931 343.137 18.5358C343.398 18.6679 343.605 19.0214 344.018 19.7282L344.018 19.7285L346.033 23.1728C346.452 23.8898 346.662 24.2483 346.647 24.5427C346.632 24.8607 346.464 25.152 346.197 25.3259C345.95 25.4868 345.535 25.4868 344.703 25.4868Z" fill="white"/>
</g>
<path fill-rule="evenodd" clip-rule="evenodd" d="M12.7367 39.5692C12.5678 39.4436 12.4513 39.2601 12.4095 39.0539C12.2781 38.567 12.1492 38.0796 12.023 37.5918C11.9058 37.1435 11.7976 36.6901 11.6778 36.2444C11.5396 35.7787 11.504 35.2887 11.5734 34.808C11.6649 34.2283 11.7396 33.6486 11.8208 33.0651C11.8439 32.9015 11.8697 32.7379 11.8826 32.5743C11.9201 32.0143 12.0723 31.468 12.3296 30.9692C12.6877 30.2851 13.0497 29.6024 13.422 28.9261C13.9592 27.9522 14.5079 26.9848 15.0516 26.0147C15.2687 25.6281 15.4214 25.2087 15.5037 24.7729C15.7459 23.5285 16.001 22.288 16.3539 21.0693C16.4896 20.5936 16.6857 20.1373 16.9375 19.7116C17.1565 19.3393 17.3716 18.9631 17.5816 18.587C17.6679 18.4349 17.7426 18.2765 17.8199 18.1193C18.1965 17.3832 18.7503 16.7524 19.4315 16.2836C19.7818 16.026 20.1516 15.8057 20.5135 15.5674C21.6426 14.8313 22.5413 13.7919 23.1067 12.5685C23.2742 12.2104 23.336 11.8213 23.4506 11.449C23.5244 11.2006 23.5099 10.9343 23.4094 10.6954C23.2961 10.3875 23.1956 10.0732 23.0822 9.76405C23.0523 9.67745 23.0088 9.59615 22.9534 9.52316C22.8246 9.36342 22.6855 9.39434 22.6043 9.58242C22.5805 9.63931 22.5623 9.69843 22.5502 9.7589C22.537 9.81923 22.5275 9.88032 22.5219 9.94182C22.4639 10.5679 22.393 11.1927 22.3518 11.8187C22.3175 12.39 22.0904 12.9327 21.7077 13.3581C21.5996 13.4826 21.482 13.5984 21.356 13.7047C20.3641 14.5265 19.398 15.3793 18.4434 16.2411C18.3074 16.3673 18.1646 16.486 18.0157 16.5967C17.7378 16.7967 17.5261 17.0753 17.4077 17.3967C17.282 17.6897 17.1378 17.9746 16.9761 18.2494C16.5974 18.9464 16.2161 19.642 15.8515 20.3466C15.5273 20.9593 15.0547 21.481 14.477 21.8641C14.3545 21.9407 14.2382 22.0269 14.1292 22.1218C13.9967 22.2529 13.8357 22.3516 13.6587 22.4102C13.4817 22.4688 13.2935 22.4856 13.109 22.4593C12.8316 22.4275 12.5567 22.3846 12.2845 22.3305C11.8384 22.2497 11.3874 22.1989 10.9345 22.1785C10.8056 22.1707 10.6871 22.1785 10.5635 22.1785C10.3174 22.1785 10.0701 22.1785 9.82404 22.1591C9.31927 22.1167 8.82796 21.9744 8.37867 21.7405C8.18544 21.6439 7.99221 21.5447 7.80542 21.439C7.57549 21.3156 7.39393 21.1181 7.29014 20.8787C7.12253 20.5031 6.98302 20.1155 6.87276 19.7193C6.84658 19.6307 6.83999 19.5375 6.85344 19.4462C6.86839 19.3752 6.9 19.3089 6.94565 19.2525C6.9913 19.1962 7.04969 19.1515 7.116 19.1222C7.18232 19.0929 7.25465 19.0798 7.32704 19.0839C7.39942 19.0881 7.46979 19.1093 7.53232 19.146C7.5681 19.1664 7.60214 19.1897 7.63409 19.2156C8.05633 19.5178 8.56029 19.6849 9.07946 19.6948C9.30545 19.7084 9.5322 19.7019 9.75705 19.6755C10.1786 19.6274 10.6056 19.6764 11.0053 19.8185C11.6198 20.0272 12.2278 20.2565 12.8384 20.4755C12.9441 20.5163 13.0526 20.5494 13.1631 20.5747C13.2333 20.5882 13.3054 20.5882 13.3756 20.5747C13.3936 20.5672 13.4096 20.5559 13.4226 20.5414C13.4355 20.5268 13.445 20.5096 13.4503 20.4909C13.4513 20.451 13.4395 20.4117 13.4168 20.3788C13.4091 20.3634 13.3859 20.3531 13.3666 20.3441C13.0085 20.1654 12.6495 19.9872 12.2897 19.8095C11.6909 19.5309 11.0649 19.3151 10.4218 19.1654C10.1319 19.0906 9.84078 19.0249 9.55223 18.9489C8.97479 18.7915 8.42358 18.5502 7.91621 18.2327C7.74757 18.1302 7.60284 17.9928 7.49174 17.8297C7.38064 17.6666 7.30575 17.4816 7.27211 17.2872C7.17452 16.7911 7.15842 16.2825 7.22444 15.7812C7.24381 15.5902 7.3073 15.4063 7.40991 15.244C7.51253 15.0817 7.65145 14.9454 7.81573 14.846C8.11393 14.6591 8.35258 14.391 8.50363 14.0731C8.57835 13.9262 8.6595 13.782 8.73551 13.6364C8.7601 13.5911 8.78162 13.5442 8.79992 13.496C8.81859 13.4588 8.82552 13.4169 8.81976 13.3757C8.81401 13.3345 8.79586 13.296 8.76771 13.2654C8.7282 13.2317 8.67875 13.2118 8.62689 13.2088C8.57503 13.2057 8.52361 13.2197 8.48044 13.2486C8.43902 13.2788 8.39985 13.312 8.36322 13.3478C8.20751 13.485 8.01211 13.569 7.80542 13.5874C7.71396 13.5965 7.62121 13.6068 7.52846 13.6068C7.34252 13.6003 7.15719 13.6314 6.98355 13.6982C6.83734 13.7516 6.67979 13.7663 6.52624 13.7407C6.50795 13.7398 6.49008 13.7349 6.47382 13.7265C6.45755 13.718 6.44328 13.7062 6.43194 13.6918C6.42061 13.6775 6.41246 13.6608 6.40807 13.643C6.40367 13.6253 6.40311 13.6067 6.40643 13.5887C6.42551 13.4558 6.48382 13.3315 6.5739 13.2319C6.95553 12.7687 7.4345 12.3953 7.97675 12.1382C8.54228 11.8651 9.11939 11.6229 9.69522 11.3653C10.329 11.0909 10.968 10.832 11.6005 10.5563C11.7872 10.4696 11.9668 10.3684 12.1376 10.2536C12.3457 10.1179 12.5181 9.93408 12.64 9.71768C13.1321 8.86618 13.8677 8.29035 14.7463 7.87812C15.3385 7.61275 15.9505 7.39395 16.5768 7.22372C16.8744 7.1387 17.1745 7.0614 17.4644 6.95706C18.0259 6.75033 18.5486 6.45026 19.0102 6.06949C19.2218 5.90266 19.3604 5.66018 19.3967 5.39318C19.4108 5.30043 19.4199 5.20897 19.4366 5.11751C19.4946 4.76737 19.6777 4.45017 19.9519 4.22478C20.027 4.15292 20.1251 4.11002 20.2289 4.10369C20.2502 4.10114 20.2719 4.10364 20.2921 4.11098C20.3124 4.11831 20.3306 4.13029 20.3454 4.14594C20.3602 4.16159 20.3711 4.18049 20.3772 4.20112C20.3834 4.22174 20.3846 4.24352 20.3809 4.26471C20.3589 4.36457 20.3219 4.46054 20.2714 4.54941C20.0936 4.85085 19.9042 5.14585 19.7226 5.45115C19.626 5.6096 19.5332 5.76934 19.4418 5.93165C19.403 6.00425 19.3686 6.0791 19.3387 6.1558C19.3026 6.24726 19.3658 6.32069 19.4675 6.30136C19.6141 6.28477 19.7505 6.21838 19.854 6.11329C19.9351 6.02182 20.0202 5.93036 20.0987 5.83632C20.3912 5.48851 20.69 5.14842 20.9683 4.79159C21.2465 4.43476 21.4926 4.1024 21.7257 3.73784C22.1275 3.10908 22.698 2.60599 23.3721 2.28603C23.8685 2.03098 24.3856 1.81853 24.9179 1.65095C25.5397 1.44622 26.2113 1.44983 26.8309 1.66126C27.247 1.8094 27.6708 1.94209 28.0805 2.10826C28.7103 2.34492 29.275 2.7277 29.7281 3.22514C29.9986 3.53646 30.2438 3.86903 30.4611 4.21963C31.0395 5.14456 31.5702 6.09783 32.0932 7.05367C32.1576 7.1709 32.222 7.28555 32.2903 7.40407C32.4111 7.62285 32.5892 7.80456 32.8056 7.92965C33.4035 8.3012 33.9 8.81503 34.2509 9.42525C34.5025 9.8516 34.7031 10.306 34.8487 10.7792C34.9376 11.0861 34.9763 11.4054 34.9633 11.7247C34.964 12.3228 34.933 12.9205 34.8706 13.5153C34.8062 14.0179 34.8759 14.5286 35.0728 14.9954C35.2235 15.3574 35.3768 15.7168 35.5288 16.0775C35.6951 16.4665 35.8244 16.8702 35.9153 17.2833C36.0073 17.7169 36.0251 18.1629 35.9681 18.6024C35.9224 18.9914 35.9018 19.383 35.9063 19.7747C35.9063 19.9602 35.9063 20.1457 35.9063 20.3312C35.9153 21.3746 35.6229 22.3446 35.1669 23.2709C34.7748 24.0434 34.28 24.7593 33.6957 25.399C32.8868 26.3232 31.9679 27.1452 30.9596 27.8466C30.2588 28.3189 29.5306 28.749 28.7787 29.1348C28.5881 29.2364 28.4143 29.3668 28.2634 29.5212C27.8296 29.9764 27.4207 30.4546 27.0383 30.9537C26.9301 31.0903 26.8206 31.2268 26.715 31.3672C26.6646 31.4315 26.6214 31.501 26.5861 31.5746C26.5806 31.5932 26.5795 31.6128 26.5831 31.6319C26.5867 31.6509 26.5948 31.6688 26.6067 31.6841C26.6224 31.6957 26.6406 31.7036 26.6598 31.7072C26.679 31.7108 26.6987 31.7099 26.7175 31.7047C26.7644 31.6857 26.808 31.6591 26.8464 31.6261C27.2612 31.3376 27.6721 31.0452 28.0882 30.7605C29.0569 30.0983 30.0089 29.4091 31.051 28.8591C31.6549 28.543 32.2236 28.1638 32.7476 27.728C33.0645 27.4704 33.3775 27.1973 33.6932 26.9319C33.7542 26.8766 33.8192 26.8258 33.8877 26.7799C33.9074 26.7659 33.93 26.7564 33.9538 26.7519C33.9776 26.7475 34.002 26.7482 34.0255 26.7542C34.059 26.7709 34.0745 26.834 34.0873 26.883C34.0916 26.9136 34.0894 26.9447 34.0809 26.9744C34.0023 27.3789 33.9289 27.7834 33.84 28.1854C33.7626 28.5172 33.6321 28.8343 33.4536 29.1245C33.2526 29.4607 33.0671 29.8033 32.8532 30.1331C32.5681 30.5637 32.2087 30.9401 31.7918 31.2448C31.3049 31.5915 30.772 31.8686 30.2086 32.068C29.6933 32.269 29.1883 32.5124 28.6795 32.7353C28.4437 32.8383 28.2093 32.944 27.9697 33.038C27.6381 33.1569 27.2909 33.2263 26.9391 33.2441C26.4562 33.2858 25.9708 33.2901 25.4873 33.257C25.0827 33.2213 24.6793 33.338 24.3563 33.5842C23.9299 33.9063 23.5112 34.2399 23.0874 34.5684C22.7782 34.8067 22.4742 35.0579 22.0967 35.188C21.8932 35.2576 21.6871 35.3246 21.4771 35.3761C20.3358 35.6526 19.194 35.927 18.0518 36.1993C17.9629 36.2212 17.8714 36.2379 17.78 36.2534C17.0847 36.3553 16.4185 36.6019 15.8245 36.9773C15.1881 37.3973 14.5363 37.8018 13.9888 38.3325C13.7221 38.5902 13.4735 38.8646 13.2159 39.1377C13.0645 39.2905 12.9045 39.4346 12.7367 39.5692ZM34.2252 20.5901C34.2252 20.2036 34.2187 19.9112 34.2252 19.624C34.2252 19.4732 34.2947 19.4397 34.4249 19.4951C34.4712 19.5157 34.515 19.5454 34.5627 19.5634C34.5811 19.5743 34.6019 19.5804 34.6233 19.5811C34.6447 19.5819 34.6659 19.5774 34.6851 19.5679C34.7042 19.5585 34.7207 19.5444 34.7331 19.527C34.7455 19.5095 34.7533 19.4893 34.7559 19.4681C34.7841 19.3482 34.7971 19.2253 34.7946 19.1022C34.7482 18.465 34.6958 17.8286 34.6374 17.1931C34.6171 16.8523 34.524 16.5197 34.3643 16.2179C34.2432 16.0025 34.1103 15.794 33.9663 15.5932C33.7086 15.2247 33.4201 14.8692 33.1624 14.4969C32.9488 14.1938 32.7124 13.9074 32.4552 13.6403C32.1805 13.3458 31.8786 13.0779 31.5534 12.8403C30.9077 12.3774 30.1959 12.0143 29.4421 11.7633C29.1187 11.6551 28.798 11.5431 28.4811 11.422C27.9251 11.2258 27.4145 10.9191 26.9803 10.5202C26.8523 10.4008 26.714 10.293 26.5668 10.1982C26.4794 10.1456 26.3835 10.1085 26.2834 10.0887C26.1636 10.0603 26.0876 10.1518 26.1147 10.2729C26.1425 10.3837 26.1999 10.4847 26.2808 10.5653C26.4264 10.7251 26.5642 10.8912 26.7124 11.0484C27.0164 11.3704 27.3101 11.7041 27.6334 12.0055C28.156 12.4719 28.7132 12.8978 29.3004 13.2796C29.6923 13.5336 30.0072 13.89 30.2111 14.3101C30.3838 14.6721 30.5976 15.0161 30.7818 15.3703C30.957 15.6975 31.1361 16.0221 31.2971 16.3558C31.6701 17.0862 31.8053 17.915 31.6836 18.7261C31.6604 18.8781 31.6526 19.034 31.641 19.1873C31.5934 19.8558 31.5444 20.5231 31.5006 21.1917C31.4894 21.3978 31.4414 21.6002 31.3589 21.7894C30.881 22.8573 30.3 23.8583 29.491 24.7188C29.1368 25.1184 28.8449 25.5692 28.6254 26.056C28.2556 26.8186 28.0276 27.634 27.7236 28.4198C27.699 28.5083 27.695 28.6013 27.712 28.6916C27.7136 28.7151 27.7212 28.7377 27.734 28.7574C27.7468 28.7771 27.7644 28.7932 27.7852 28.8042C27.806 28.8152 27.8292 28.8206 27.8527 28.8201C27.8762 28.8196 27.8992 28.813 27.9194 28.8011C28.0399 28.7404 28.1388 28.6442 28.2028 28.5254L28.454 28.099C28.7265 27.6145 29.0312 27.1488 29.3661 26.7052C29.6984 26.2827 30.0823 25.9104 30.4456 25.5162C30.4831 25.4794 30.5267 25.4493 30.5744 25.4273C30.5936 25.414 30.6158 25.4058 30.639 25.4032C30.6622 25.4007 30.6857 25.404 30.7073 25.4128C30.7289 25.4216 30.748 25.4357 30.7628 25.4538C30.7776 25.4718 30.7877 25.4933 30.7921 25.5162C30.8192 25.6051 30.8333 25.6978 30.863 25.7854C30.8672 25.8168 30.8801 25.8464 30.9001 25.8709C30.9201 25.8954 30.9465 25.9138 30.9764 25.9242C31.0063 25.9346 31.0385 25.9366 31.0694 25.9298C31.1003 25.923 31.1287 25.9079 31.1515 25.8859C31.2328 25.8301 31.3061 25.7633 31.3692 25.6875C31.6011 25.4119 31.8304 25.1323 32.0546 24.8502C32.5913 24.1726 33.1272 23.4933 33.6622 22.8123C33.9727 22.4362 34.1535 21.9699 34.1775 21.4828C34.193 21.1466 34.2136 20.8181 34.2252 20.5901ZM18.0376 33.02C18.0275 33.2159 18.0591 33.4117 18.1304 33.5945C18.1382 33.6209 18.1536 33.6445 18.1746 33.6623C18.1956 33.6801 18.2213 33.6915 18.2487 33.6949C18.276 33.6983 18.3037 33.6937 18.3285 33.6816C18.3532 33.6695 18.3739 33.6504 18.388 33.6267C18.4642 33.5304 18.5279 33.4248 18.5774 33.3124C18.7616 32.8654 18.9329 32.4107 19.1158 31.9649C19.3154 31.4751 19.6483 31.0511 20.0768 30.7412C20.6501 30.3212 21.213 29.8884 21.7914 29.4761C22.3067 29.1116 22.822 28.7547 23.3502 28.4198C23.9816 28.0297 24.6521 27.7067 25.3507 27.4562C25.9396 27.2461 26.4393 26.8417 26.7678 26.3097C26.9027 26.0941 27.0498 25.8864 27.2083 25.6875C27.5895 25.241 27.9112 24.7469 28.1655 24.2177C28.6112 23.2412 28.9822 22.2377 29.3364 21.2265C29.4616 20.866 29.4983 20.4808 29.4434 20.1032C29.3764 19.5879 29.3223 19.0803 29.2476 18.5715C29.157 17.7899 28.8857 17.0402 28.4553 16.3816C28.2415 16.0659 28.0495 15.7375 27.8434 15.4167C27.548 14.9449 27.3146 14.4371 27.1491 13.9056C27.0512 13.6029 26.9649 13.295 26.8773 12.9884C26.8394 12.8273 26.7614 12.6784 26.6505 12.5556C26.639 12.5417 26.6237 12.5312 26.6065 12.5256C26.5893 12.5199 26.5709 12.5191 26.5533 12.5234C26.5357 12.5277 26.5197 12.5369 26.507 12.5499C26.4944 12.5628 26.4856 12.5791 26.4818 12.5968C26.4642 12.7288 26.4621 12.8624 26.4754 12.9949C26.5617 13.5436 26.648 14.0937 26.7562 14.6386C26.943 15.579 27.1826 16.5052 27.4518 17.425C27.6162 17.969 27.7105 18.5318 27.7326 19.0997C27.7396 19.553 27.7064 20.0061 27.6334 20.4536C27.5458 21.0552 27.4557 21.6555 27.3539 22.257C27.322 22.3862 27.2703 22.5096 27.2006 22.6229C27.1483 22.7127 27.0897 22.7988 27.0254 22.8805C26.5101 23.6354 25.9807 24.3864 25.4139 25.1066C25.223 25.3481 25.0022 25.5646 24.7569 25.7507C24.2893 26.0885 23.7876 26.3765 23.26 26.6099C23.0088 26.7284 22.7537 26.8405 22.5064 26.968C21.9389 27.2441 21.4511 27.6604 21.0894 28.1776C20.9632 28.3533 20.8223 28.5179 20.6681 28.6697C20.3474 29.0047 20.024 29.3331 19.6943 29.6616C19.5394 29.8127 19.4055 29.9838 19.2962 30.1705C18.9844 30.7283 18.674 31.2861 18.3584 31.8451C18.1542 32.2035 18.0438 32.6076 18.0376 33.02ZM25.3069 16.7319H25.2902C25.2902 16.4022 25.2902 16.0724 25.2902 15.7426C25.2741 15.2272 25.1798 14.7173 25.0107 14.2303C24.7925 13.5862 24.5748 12.942 24.3575 12.2979C24.3337 12.2197 24.3009 12.1445 24.2596 12.0738C24.2496 12.0507 24.2322 12.0315 24.2102 12.0193C24.1882 12.0071 24.1627 12.0024 24.1378 12.0061C24.1129 12.0097 24.0899 12.0215 24.0723 12.0396C24.0547 12.0576 24.0436 12.081 24.0406 12.106C24.0181 12.1849 24.0051 12.2662 24.002 12.3482C23.993 12.477 23.9917 12.6161 23.9891 12.7501C23.9638 13.2241 23.9923 13.6995 24.0741 14.1671C24.1546 14.5818 24.1934 15.0034 24.1901 15.4257C24.1928 16.075 24.1267 16.7227 23.993 17.358C23.8795 17.9153 23.6441 18.4405 23.3038 18.8961C22.9556 19.3709 22.5276 19.7815 22.0388 20.1096C21.414 20.5257 20.7815 20.9328 20.1554 21.3476C19.881 21.5292 19.6105 21.716 19.3451 21.9105C19.0146 22.1757 18.7501 22.5139 18.5722 22.8986C18.227 23.5543 17.8908 24.2138 17.5417 24.8669C17.287 25.3149 17.0731 25.7848 16.9027 26.2711C16.588 27.2262 16.5202 28.2455 16.7056 29.234C16.7252 29.3237 16.7569 29.4103 16.7997 29.4916C16.8111 29.5074 16.8262 29.5201 16.8438 29.5287C16.8613 29.5372 16.8807 29.5413 16.9001 29.5405C16.9372 29.5281 16.9686 29.503 16.989 29.4697C17.0032 29.4422 17.0107 29.4117 17.0109 29.3808C17.0612 28.9621 17.1088 28.5422 17.1591 28.1235C17.1855 27.7637 17.2727 27.4109 17.4167 27.0801C17.628 26.6447 17.8354 26.2067 18.0698 25.7841C18.4596 25.0549 18.9842 24.4062 19.6157 23.8725C20.0451 23.5195 20.4783 23.1717 20.9155 22.829C21.5629 22.336 22.2497 21.897 22.9689 21.5163C23.2117 21.3819 23.4473 21.2348 23.6748 21.0758C23.9049 20.9174 24.1015 20.7151 24.2532 20.4806C24.3666 20.3093 24.4838 20.1392 24.5894 19.9653C25.0854 19.1447 25.3714 18.2662 25.3095 17.2936C25.2966 17.1029 25.3069 16.9174 25.3069 16.7319ZM24.8741 5.22958C24.4224 5.22862 23.9769 5.33503 23.5743 5.54004C22.9998 5.817 22.4343 6.11457 21.8674 6.407C21.7742 6.45375 21.6876 6.51266 21.6098 6.58219C21.584 6.60061 21.5632 6.62522 21.5494 6.65375C21.5356 6.68229 21.5291 6.71383 21.5307 6.7455C21.5322 6.77717 21.5417 6.80795 21.5582 6.83501C21.5747 6.86207 21.5978 6.88454 21.6253 6.90038C22.0362 7.19795 22.469 7.41566 23.0049 7.25334C23.5679 7.08717 24.136 6.94031 24.7015 6.78186C25.4036 6.58606 26.0129 6.72905 26.4818 7.29714C26.7884 7.67072 27.0795 8.06105 27.3475 8.45653C27.5759 8.81167 27.8429 9.14044 28.1436 9.43685C28.6858 9.9305 29.3201 10.3122 30.0102 10.5602C30.3966 10.7083 30.7728 10.8719 31.1412 11.0548C31.7793 11.3709 32.372 11.7713 32.9035 12.2451C32.9647 12.2999 33.0306 12.349 33.1006 12.392C33.1242 12.413 33.1547 12.4246 33.1862 12.4246C33.2178 12.4246 33.2483 12.413 33.2719 12.392C33.3286 12.3392 33.3003 12.2786 33.2719 12.2232C33.2618 12.2052 33.2497 12.1883 33.2358 12.173C32.6381 11.4142 31.9605 10.7444 31.1129 10.2626C30.9609 10.175 30.8063 10.0938 30.6517 10.0049C30.1799 9.75024 29.7419 9.43734 29.348 9.07358C28.937 8.696 28.589 8.255 28.3175 7.76734C28.2183 7.58699 28.1281 7.40149 28.0289 7.22114C27.6708 6.56673 27.1993 6.01925 26.5282 5.66499C26.0202 5.38805 25.4526 5.23863 24.8741 5.22958ZM21.2594 5.74486C21.2594 5.78351 21.2659 5.81314 21.271 5.84405C21.289 5.97287 21.356 6.02054 21.4874 5.98833C21.5767 5.96645 21.6631 5.93447 21.7451 5.893C21.8738 5.82839 21.9986 5.75612 22.1186 5.67659C22.5723 5.39191 23.0484 5.14462 23.5421 4.93716C24.0502 4.70974 24.5183 4.40176 24.9282 4.02511C25.1458 3.81638 25.4279 3.68783 25.7282 3.66055C26.0972 3.62341 26.4685 3.61652 26.8386 3.63994C27.6266 3.68501 28.3832 3.96398 29.0118 4.4412C29.2089 4.59063 29.3983 4.75423 29.5864 4.9101C29.9058 5.16775 30.224 5.42539 30.5448 5.68303C30.6012 5.72679 30.6649 5.76036 30.7329 5.78222C30.7524 5.78307 30.7718 5.77984 30.79 5.77274C30.8082 5.76564 30.8247 5.75483 30.8385 5.741C30.8477 5.72885 30.8539 5.7147 30.8566 5.6997C30.8593 5.6847 30.8584 5.66927 30.854 5.65469C30.7933 5.50095 30.6997 5.36241 30.5796 5.2489C30.0965 4.77098 29.6224 4.28275 29.1265 3.819C28.7461 3.4695 28.3016 3.19697 27.8177 3.01644C27.2848 2.82034 26.7235 2.71244 26.1559 2.69697C25.0583 2.64931 24.0548 2.92112 23.1866 3.6219C22.9869 3.78422 22.7847 3.94395 22.5927 4.11528C22.2475 4.42445 21.9087 4.74006 21.5621 5.05438C21.38 5.23861 21.2722 5.48354 21.2594 5.74228V5.74486ZM27.3372 4.88176C27.2238 4.87275 27.1542 4.90495 27.1298 4.96292C27.1147 4.99629 27.1111 5.03371 27.1195 5.06935C27.1278 5.10499 27.1478 5.13686 27.1761 5.16001C27.2962 5.27392 27.4255 5.37776 27.5626 5.47047C28.0636 5.7818 28.4825 6.20904 28.7838 6.71616C29.008 7.10262 29.2218 7.48909 29.4421 7.86911C29.7242 8.37638 30.1213 8.81051 30.6015 9.1367C30.8687 9.31171 31.1593 9.44831 31.4646 9.54248C31.8526 9.65695 32.1918 9.89655 32.4294 10.2239C32.8275 10.7753 33.241 11.3138 33.6519 11.8548C33.7543 11.9838 33.8631 12.1077 33.9778 12.2258C33.9931 12.2383 34.0109 12.2475 34.03 12.2526C34.0491 12.2577 34.0691 12.2587 34.0886 12.2554C34.1492 12.2451 34.1659 12.1885 34.1595 12.1356C34.1489 12.0646 34.1316 11.9947 34.108 11.9269C33.9325 11.3981 33.6761 10.8997 33.3479 10.4494C32.9962 9.96759 32.6252 9.49997 32.2542 9.03235C31.9069 8.59541 31.4787 8.22935 30.9931 7.95413C30.5568 7.71739 30.1795 7.3854 29.8891 6.98282C29.7538 6.78959 29.6314 6.58992 29.5026 6.38896C29.3254 6.09854 29.1007 5.83989 28.8379 5.62377C28.4296 5.29528 27.9555 5.09947 27.4763 4.9101C27.4311 4.89504 27.3845 4.88468 27.3372 4.87919V4.88176ZM15.6789 9.23718C15.584 9.243 15.4894 9.25374 15.3955 9.26938C15.362 9.27711 15.3131 9.31962 15.3131 9.34667C15.3122 9.37091 15.3167 9.39504 15.3263 9.41732C15.3358 9.4396 15.3503 9.45947 15.3685 9.47549C15.4521 9.5175 15.5381 9.55449 15.6261 9.58628C15.6805 9.61342 15.7326 9.64487 15.782 9.68032C15.7888 9.68794 15.794 9.69696 15.797 9.70675C15.8 9.71655 15.8009 9.72688 15.7996 9.73705C15.7982 9.74722 15.7947 9.75697 15.7892 9.76563C15.7837 9.7743 15.7764 9.78167 15.7678 9.78724C15.7315 9.80444 15.6929 9.81616 15.6532 9.82202C15.3762 9.84907 15.0992 9.8684 14.8223 9.9006C14.6913 9.91683 14.562 9.94442 14.4358 9.98305C14.4045 9.98676 14.3744 9.99703 14.3473 10.0132C14.3203 10.0293 14.297 10.051 14.2789 10.0767C14.2607 10.1025 14.2483 10.1318 14.2422 10.1627C14.2362 10.1936 14.2368 10.2255 14.2439 10.2561C14.252 10.3894 14.2719 10.5218 14.3031 10.6516C14.3315 10.7804 14.3791 10.9093 14.4062 11.0381C14.4564 11.2841 14.4062 11.3949 14.1936 11.5315C13.9811 11.668 13.7209 11.8226 13.4825 11.9656C13.3318 12.0545 13.1759 12.1343 13.0278 12.2232C13.0078 12.237 12.9912 12.2552 12.9794 12.2765C12.9676 12.2977 12.9608 12.3213 12.9595 12.3456C12.967 12.3684 12.98 12.389 12.9973 12.4056C13.0146 12.4222 13.0357 12.4344 13.0587 12.4409C13.1805 12.4577 13.304 12.4577 13.4259 12.4409C13.588 12.4114 13.7475 12.3683 13.9025 12.3121C14.2039 12.2091 14.5002 12.088 14.8042 11.9888C15.9089 11.6201 16.9692 11.1297 17.9655 10.5267C18.0267 10.4913 18.083 10.448 18.1329 10.3978C18.164 10.37 18.1873 10.3348 18.2008 10.2953C18.2143 10.2559 18.2174 10.2137 18.2099 10.1728C18.2024 10.1318 18.1845 10.0934 18.158 10.0613C18.1314 10.0292 18.0971 10.0045 18.0582 9.98949C17.9749 9.94798 17.8888 9.91226 17.8006 9.88257C17.1848 9.67903 16.5682 9.47764 15.9507 9.2784C15.8613 9.25779 15.7704 9.24401 15.6789 9.23718ZM15.9675 7.72998C15.8101 7.71703 15.6524 7.75063 15.514 7.8266C15.0709 8.04173 14.6303 8.2633 14.1898 8.48616C13.9064 8.63043 13.726 8.88679 13.525 9.11995C13.5085 9.13994 13.4965 9.16331 13.4899 9.18843C13.4834 9.21355 13.4824 9.2398 13.487 9.26534C13.4917 9.29088 13.5019 9.31508 13.5169 9.33626C13.532 9.35743 13.5514 9.37506 13.574 9.3879C13.6076 9.41146 13.644 9.43092 13.6822 9.44587C13.9154 9.52831 14.1447 9.61977 14.3817 9.68805C14.6947 9.7808 14.8055 9.72154 14.9189 9.40593C15.0097 9.15404 15.1445 8.92026 15.3169 8.71546C15.4947 8.5029 15.6879 8.30194 15.8722 8.09583C15.9308 8.03864 15.9834 7.97562 16.0293 7.90775C16.0398 7.88601 16.0459 7.86242 16.0472 7.83832C16.0485 7.81422 16.0451 7.7901 16.037 7.76734C16.0267 7.74029 15.9701 7.73127 15.9675 7.72998Z" fill="white"/>
<path fill-rule="evenodd" clip-rule="evenodd" d="M9.92578 29.0523C9.92663 28.6612 10.0032 28.2741 10.1512 27.9122C10.32 27.491 10.4926 27.0736 10.6665 26.6536C10.8021 26.3088 10.9777 25.9811 11.1895 25.6772C11.2661 25.5676 11.3566 25.4684 11.4587 25.3822C11.974 24.9661 12.4893 24.5551 12.9981 24.1442C13.3679 23.8479 13.7556 23.5748 14.0983 23.2425C14.2131 23.1402 14.3369 23.0484 14.468 22.9681C14.4811 22.9614 14.4956 22.9582 14.5103 22.9585C14.525 22.9589 14.5394 22.9629 14.5521 22.9702C14.5649 22.9774 14.5757 22.9878 14.5834 23.0002C14.5912 23.0127 14.5958 23.0268 14.5968 23.0415C14.5949 23.1439 14.5845 23.246 14.5659 23.3468C14.4716 23.7926 14.2406 24.1979 13.905 24.5062C13.4915 24.9068 13.0754 25.3062 12.6709 25.7171C12.3137 26.0872 11.9633 26.4638 11.6198 26.8469C11.0653 27.4737 10.6561 28.2153 10.4217 29.0188C10.3372 29.3493 10.3337 29.6953 10.4114 30.0274C10.4206 30.0677 10.4377 30.1058 10.4617 30.1395C10.5441 30.276 10.6858 30.2799 10.7438 30.1318C10.8281 29.9116 10.8978 29.6861 10.9525 29.4568C11.0366 29.0425 11.189 28.645 11.4034 28.2806C11.6856 27.8612 12.0429 27.4974 12.4571 27.2075C12.4748 27.1972 12.4939 27.1894 12.5138 27.1844C12.5846 27.1586 12.6748 27.2269 12.6529 27.2977C12.6184 27.4053 12.5753 27.51 12.5241 27.6108C12.3669 27.9341 12.2033 28.2549 12.0423 28.5782C11.6636 29.3322 11.2844 30.0863 10.9048 30.8403C10.8676 30.9126 10.8198 30.979 10.7631 31.0374C10.7503 31.0502 10.735 31.0603 10.718 31.0668C10.7011 31.0733 10.683 31.0762 10.6648 31.0752C10.6467 31.0742 10.629 31.0694 10.6129 31.0611C10.5967 31.0528 10.5825 31.0412 10.5712 31.0271C10.5368 30.9876 10.5069 30.9444 10.4823 30.8983C10.1806 30.3799 9.9943 29.8025 9.93609 29.2056C9.93093 29.1489 9.92707 29.087 9.92578 29.0523Z" fill="white"/>
<path fill-rule="evenodd" clip-rule="evenodd" d="M6 17.2449C6.02834 16.9628 6.04638 16.7168 6.07987 16.472C6.11336 16.2272 6.15587 15.9851 6.20869 15.7442C6.22693 15.6652 6.25922 15.5901 6.30402 15.5226C6.31689 15.5065 6.33378 15.494 6.35299 15.4865C6.37221 15.479 6.39306 15.4767 6.41345 15.4799C6.43383 15.483 6.45303 15.4915 6.4691 15.5044C6.48517 15.5173 6.49754 15.5343 6.50498 15.5535C6.52764 15.6317 6.53636 15.7132 6.53074 15.7944C6.51271 16.0082 6.48436 16.2221 6.45731 16.4385C6.42184 16.6933 6.42837 16.9523 6.47664 17.205C6.51271 17.3866 6.53203 17.5708 6.56423 17.7525C6.57839 17.8231 6.5733 17.8962 6.5495 17.9642C6.52571 18.0322 6.48408 18.0925 6.42897 18.1389C6.41817 18.15 6.40525 18.1589 6.39098 18.1649C6.37671 18.1709 6.36137 18.174 6.34588 18.174C6.33039 18.174 6.31506 18.1709 6.30079 18.1649C6.28652 18.1589 6.2736 18.15 6.26279 18.1389C6.19679 18.0633 6.14565 17.9759 6.11208 17.8813C6.05539 17.6597 6.03092 17.4343 6 17.2449Z" fill="white"/>
<path fill-rule="evenodd" clip-rule="evenodd" d="M11.1932 24.1176C11.1416 24.0347 11.0951 23.9486 11.0541 23.8599C11.0367 23.8121 11.0367 23.7596 11.0541 23.7118C11.0759 23.6681 11.1138 23.6344 11.1597 23.6178C11.1842 23.6087 11.2383 23.6409 11.2589 23.6693C11.3063 23.7175 11.3363 23.7802 11.3442 23.8473C11.3521 23.9144 11.3375 23.9823 11.3027 24.0403C11.2821 24.0699 11.2422 24.0854 11.1932 24.1176Z" fill="white"/>
<path fill-rule="evenodd" clip-rule="evenodd" d="M16.5154 10.7342C16.4703 10.7858 16.4407 10.845 16.3866 10.8721C16.0452 11.085 15.64 11.1716 15.2413 11.1168C15.1907 11.1119 15.1421 11.0947 15.0996 11.0666C15.0863 11.0531 15.0766 11.0365 15.0712 11.0183C15.0658 11.0001 15.065 10.9808 15.0687 10.9623C15.0863 10.9131 15.1154 10.8689 15.1537 10.8334C15.3222 10.6832 15.5305 10.5848 15.7535 10.5501C15.9765 10.5154 16.2049 10.5458 16.411 10.6376C16.4498 10.6652 16.4849 10.6977 16.5154 10.7342Z" fill="white"/>
<path d="M53.8357 25.92C58.2907 25.935 60.4507 24.585 60.4507 21.765C60.4507 18.165 56.8507 18.21 54.3157 17.79L52.9957 17.58C52.1407 17.445 52.0357 17.025 52.0357 16.815C52.0357 16.365 52.5007 16.005 53.7757 16.005C55.2607 16.005 55.9057 16.455 56.0407 17.19H60.0907C60.1957 13.44 57.6007 12.48 53.8807 12.48C49.7107 12.48 47.6857 14.04 47.6857 16.575C47.6857 19.965 50.7157 20.13 53.0857 20.505L54.7357 20.76C55.8757 20.91 55.9357 21.33 55.9357 21.57C55.9357 22.02 55.3057 22.41 53.8357 22.395C52.1257 22.365 51.4957 21.93 51.4657 21.18H47.4007C47.2657 24.555 49.3207 25.905 53.8357 25.92ZM75.0914 12.9H61.6214V16.68H66.0764V25.5H70.6214V16.68H75.0914V12.9ZM90.3124 25.5L88.1224 21.42C89.1274 20.67 89.8474 19.47 89.8474 17.82C89.8474 14.37 87.8374 12.9 84.2974 12.9H76.8874V25.5H81.4174V22.41H84.2674L85.8574 25.5H90.3124ZM81.4174 16.665H83.9674C84.8674 16.665 85.3024 17.115 85.3024 17.85C85.3024 18.585 84.8674 19.035 83.9674 19.035H81.4174V16.665ZM102.082 25.5H106.777L102.217 12.9H95.857L91.312 25.5H95.992L96.472 23.985H101.602L102.082 25.5ZM97.537 20.64L98.647 17.16H99.427L100.537 20.64H97.537ZM119.047 12.9H105.577V16.68H110.032V25.5H114.577V16.68H119.047V12.9ZM134.238 12.9H120.768V16.68H125.223V25.5H129.768V16.68H134.238V12.9ZM142.429 25.92C146.839 25.92 149.644 23.265 149.644 19.2C149.644 15.135 146.839 12.48 142.429 12.48C138.034 12.48 135.229 15.135 135.229 19.2C135.229 23.265 138.034 25.92 142.429 25.92ZM142.429 22.005C140.989 22.005 139.729 21.03 139.729 19.2C139.729 17.37 140.989 16.395 142.429 16.395C143.884 16.395 145.129 17.37 145.129 19.2C145.129 21.03 143.884 22.005 142.429 22.005ZM151.313 25.5H155.738V19.245H156.143L159.893 25.5H164.978V12.9H160.553V19.155H160.133L156.503 12.9H151.313V25.5ZM171.693 25.5H176.118V19.245H176.523L180.273 25.5H185.358V12.9H180.933V19.155H180.513L176.883 12.9H171.693V25.5ZM194.211 25.92C198.621 25.92 201.426 23.265 201.426 19.2C201.426 15.135 198.621 12.48 194.211 12.48C189.816 12.48 187.011 15.135 187.011 19.2C187.011 23.265 189.816 25.92 194.211 25.92ZM194.211 22.005C192.771 22.005 191.511 21.03 191.511 19.2C191.511 17.37 192.771 16.395 194.211 16.395C195.666 16.395 196.911 17.37 196.911 19.2C196.911 21.03 195.666 22.005 194.211 22.005ZM209.605 12.9H203.095V25.5H209.605C214.81 25.5 216.595 22.83 216.595 19.2C216.595 15.555 214.81 12.9 209.605 12.9ZM209.605 21.705H207.64L207.655 16.695H209.605C210.94 16.695 212.035 17.31 212.035 19.2C212.035 21.075 210.94 21.705 209.605 21.705ZM218.321 25.5H229.916V21.87H222.851V20.655H229.646V17.745H222.851V16.515H229.916V12.9H218.321V25.5ZM237.959 25.92C242.414 25.935 244.574 24.585 244.574 21.765C244.574 18.165 240.974 18.21 238.439 17.79L237.119 17.58C236.264 17.445 236.159 17.025 236.159 16.815C236.159 16.365 236.624 16.005 237.899 16.005C239.384 16.005 240.029 16.455 240.164 17.19H244.214C244.319 13.44 241.724 12.48 238.004 12.48C233.834 12.48 231.809 14.04 231.809 16.575C231.809 19.965 234.839 20.13 237.209 20.505L238.859 20.76C239.999 20.91 240.059 21.33 240.059 21.57C240.059 22.02 239.429 22.41 237.959 22.395C236.249 22.365 235.619 21.93 235.589 21.18H231.524C231.389 24.555 233.444 25.905 237.959 25.92Z" fill="white"/>
<defs>
<clipPath id="clip0_3442_20260">
<rect width="146" height="29.5748" fill="white" transform="translate(322 4)"/>
</clipPath>
</defs>
</svg>
