<?xml version="1.0" encoding="utf-8" ?>
<svg
  viewBox="-223.824 3.255 1431.922 516.279"
  preserveAspectRatio="none"
  xmlns="http://www.w3.org/2000/svg"
>
  <defs>
    <filter
      id="filter0_f_3671_20179"
      x="326"
      y="134"
      width="387"
      height="387"
      filterUnits="userSpaceOnUse"
      color-interpolation-filters="sRGB"
    >
      <feFlood flood-opacity="0" result="BackgroundImageFix" />
      <feBlend
        mode="normal"
        in="SourceGraphic"
        in2="BackgroundImageFix"
        result="shape"
      />
      <feGaussianBlur
        stdDeviation="41"
        result="effect1_foregroundBlur_3671_20179"
      />
    </filter>
  </defs>
  <g
    filter="url(#filter0_f_3671_20179)"
    transform="matrix(1, 0, 0, 1, -226.694183, 9.912217)"
  >
    <circle cx="519.5" cy="327.5" r="111.5" fill="#7878D5" />
  </g>
  <path
    d="M0 28.1671C552.928 -28.118 861.5 116 1440 0.5V349.167C884.462 415.875 568.874 412.965 0 349.167V28.1671Z"
    fill="#141433"
    transform="matrix(1, 0, 0, 1, -226.694183, 9.912217)"
  />
  <path
    d="M 10 119.497 C 562.928 70.278 865.678 67.06 1438.749 123.057 L 1440.348 374.591 C 884.81 432.925 395.5 236.5 10 372.5 L 10 119.497 Z"
    fill="#1B1B4F"
    transform="matrix(1, 0, 0, 1, -226.694183, 9.912217)"
  />
  <path
    fill-rule="evenodd"
    clip-rule="evenodd"
    d="M0 439L80.3442 416.7C159.489 394.4 320.177 349.8 479.667 342.367C639.156 334.933 799.844 364.667 959.333 349.8C1118.82 334.933 1279.51 275.467 1358.66 245.733L1439 216H1358.66C1279.51 216 1118.82 216 959.333 216C799.844 216 639.156 216 479.667 216C320.177 216 159.489 216 80.3442 216H0V439Z"
    fill="#5454D4"
    transform="matrix(1, 0, 0, 1, -226.694183, 9.912217)"
  />
  <path
    fill-rule="evenodd"
    clip-rule="evenodd"
    d="M 0 72 L 119.917 96 C 239.833 120 479.667 168 719.5 174 C 959.333 180 1199.17 144 1319.08 126 L 1440.029 108 L 1440.029 216 L 1424.886 218.13 C 1304.976 218.13 963.594 223.811 723.761 223.811 C 483.928 223.811 121.246 223.101 1.33 223.101 L 0 216 L 0 72 Z"
    fill="#5454D4"
    transform="matrix(1, 0, 0, 1, -226.694183, 9.912217)"
  />
</svg>
