<svg width="40" height="31" viewBox="0 0 40 31" fill="none" xmlns="http://www.w3.org/2000/svg">
<path d="M33.2897 3.18415C30.7885 2.03647 28.1062 1.19091 25.3018 0.706619C25.2508 0.697279 25.1997 0.720636 25.1735 0.76735C24.8285 1.38088 24.4464 2.18129 24.1788 2.8104C21.1625 2.35882 18.1617 2.35882 15.2071 2.8104C14.9395 2.1673 14.5435 1.38088 14.1971 0.76735C14.1706 0.72219 14.1197 0.698833 14.0686 0.706619C11.2657 1.18936 8.58351 2.03493 6.0807 3.18415C6.05904 3.19349 6.04047 3.20907 6.02815 3.22931C0.940534 10.8301 -0.453173 18.2441 0.230534 25.5661C0.233628 25.6019 0.253736 25.6362 0.281575 25.658C3.63824 28.1229 6.88973 29.6195 10.0808 30.6114C10.1319 30.6271 10.186 30.6083 10.2185 30.5663C10.9734 29.5354 11.6463 28.4485 12.2232 27.3054C12.2572 27.2385 12.2247 27.1591 12.1552 27.1326C11.0879 26.7277 10.0716 26.234 9.09396 25.6735C9.01663 25.6284 9.01044 25.5178 9.08157 25.4648C9.2873 25.3106 9.49307 25.1503 9.68952 24.9883C9.72506 24.9587 9.77459 24.9525 9.81637 24.9711C16.2388 27.9035 23.1919 27.9035 29.5386 24.9711C29.5805 24.9509 29.6299 24.9572 29.667 24.9868C29.8635 25.1487 30.0692 25.3106 30.2765 25.4648C30.3476 25.5178 30.343 25.6284 30.2656 25.6735C29.2881 26.2449 28.2718 26.7277 27.2029 27.131C27.1333 27.1576 27.1024 27.2385 27.1365 27.3054C27.7258 28.4469 28.3986 29.5338 29.1396 30.5647C29.1704 30.6083 29.2262 30.6271 29.2772 30.6114C32.4838 29.6195 35.7353 28.1229 39.0919 25.658C39.1214 25.6362 39.1399 25.6034 39.143 25.5677C39.9613 17.1025 37.7725 9.74938 33.3408 3.23086C33.3299 3.20907 33.3114 3.19349 33.2897 3.18415ZM13.1823 21.1077C11.2487 21.1077 9.65547 19.3325 9.65547 17.1524C9.65547 14.9723 11.2178 13.1971 13.1823 13.1971C15.1622 13.1971 16.74 14.9878 16.7091 17.1524C16.7091 19.3325 15.1468 21.1077 13.1823 21.1077ZM26.2222 21.1077C24.2887 21.1077 22.6954 19.3325 22.6954 17.1524C22.6954 14.9723 24.2577 13.1971 26.2222 13.1971C28.2022 13.1971 29.78 14.9878 29.749 17.1524C29.749 19.3325 28.2022 21.1077 26.2222 21.1077Z" fill="white"/>
</svg>
