<svg width="220" height="280" viewBox="0 0 220 280" fill="none" xmlns="http://www.w3.org/2000/svg">
<g opacity="0.6">
<path fill-rule="evenodd" clip-rule="evenodd" d="M28.7939 202.05C28.8001 199.183 29.3615 196.344 30.4471 193.69C31.6847 190.601 32.9505 187.54 34.2259 184.46C35.2205 181.932 36.5077 179.528 38.0613 177.299C38.6231 176.496 39.2867 175.769 40.0356 175.136C43.8144 172.085 47.5931 169.071 51.3246 166.058C54.0358 163.885 56.8793 161.882 59.3922 159.445C60.2345 158.695 61.1418 158.022 62.1034 157.433C62.1995 157.384 62.3062 157.36 62.4139 157.363C62.5215 157.365 62.6269 157.395 62.7205 157.448C62.814 157.501 62.8929 157.577 62.9501 157.668C63.0073 157.76 63.041 157.864 63.0481 157.971C63.0339 158.722 62.958 159.471 62.8214 160.21C62.1298 163.479 60.4357 166.451 57.9751 168.712C54.9427 171.65 51.8914 174.579 48.9251 177.592C46.3052 180.307 43.7356 183.068 41.2165 185.877C37.15 190.474 34.15 195.913 32.431 201.804C31.8111 204.228 31.7852 206.765 32.3554 209.201C32.4227 209.497 32.5479 209.776 32.7238 210.023C33.3284 211.025 34.3676 211.053 34.7927 209.966C35.4107 208.352 35.922 206.698 36.3231 205.016C36.9401 201.978 38.0574 199.064 39.6294 196.391C41.6996 193.316 44.3192 190.648 47.3569 188.522C47.4868 188.446 47.6268 188.389 47.7726 188.352C48.2922 188.163 48.9534 188.664 48.7928 189.184C48.5398 189.973 48.2239 190.74 47.8482 191.479C46.6957 193.85 45.4959 196.202 44.3151 198.574C41.5377 204.103 38.7572 209.633 35.9735 215.162C35.7003 215.693 35.3502 216.18 34.9344 216.608C34.8406 216.702 34.7279 216.775 34.6037 216.823C34.4795 216.871 34.3465 216.892 34.2137 216.885C34.0808 216.878 33.9509 216.843 33.8325 216.782C33.7141 216.721 33.61 216.636 33.5268 216.532C33.2744 216.243 33.0557 215.926 32.875 215.587C30.6626 211.786 29.2964 207.552 28.8695 203.174C28.8317 202.759 28.8034 202.305 28.7939 202.05Z" fill="white"/>
<path fill-rule="evenodd" clip-rule="evenodd" d="M0 115.461C0.20783 113.392 0.340095 111.588 0.585712 109.793C0.831329 107.998 1.14307 106.222 1.53039 104.455C1.66417 103.876 1.90094 103.326 2.22945 102.83C2.32383 102.712 2.44772 102.621 2.58862 102.566C2.72952 102.511 2.88243 102.494 3.03193 102.517C3.18142 102.54 3.32221 102.602 3.44007 102.697C3.55792 102.792 3.64866 102.916 3.70315 103.057C3.86936 103.63 3.93333 104.228 3.8921 104.824C3.75984 106.392 3.552 107.96 3.35362 109.547C3.09347 111.416 3.14135 113.315 3.49533 115.168C3.75984 116.5 3.90154 117.851 4.13771 119.183C4.2415 119.701 4.20418 120.237 4.02968 120.736C3.85519 121.234 3.54991 121.677 3.14579 122.017C3.06656 122.098 2.97182 122.163 2.86717 122.207C2.76251 122.251 2.65007 122.274 2.53647 122.274C2.42287 122.274 2.31043 122.251 2.20578 122.207C2.10113 122.163 2.00638 122.098 1.92716 122.017C1.44309 121.462 1.0681 120.821 0.821882 120.127C0.406223 118.503 0.226723 116.849 0 115.461Z" fill="white"/>
<path fill-rule="evenodd" clip-rule="evenodd" d="M38.0804 165.859C37.7016 165.251 37.3609 164.62 37.0602 163.97C36.9324 163.619 36.9324 163.234 37.0602 162.884C37.2205 162.563 37.4978 162.316 37.8348 162.194C38.0143 162.128 38.4111 162.364 38.5622 162.572C38.9095 162.926 39.1294 163.385 39.1875 163.877C39.2457 164.37 39.1387 164.867 38.8834 165.292C38.7323 165.51 38.4394 165.623 38.0804 165.859Z" fill="white"/>
<path fill-rule="evenodd" clip-rule="evenodd" d="M48.4373 279.174C47.1993 278.253 46.3449 276.907 46.0378 275.395C45.0742 271.824 44.1296 268.25 43.2038 264.673C42.3441 261.386 41.5506 258.06 40.672 254.792C39.6592 251.377 39.3981 247.784 39.9068 244.258C40.5776 240.007 41.1255 235.756 41.7206 231.477C41.8907 230.277 42.0796 229.077 42.1741 227.878C42.4494 223.771 43.5651 219.765 45.4521 216.107C48.0783 211.091 50.7329 206.084 53.463 201.124C57.4023 193.983 61.4267 186.888 65.4132 179.775C67.0056 176.939 68.1256 173.863 68.729 170.668C70.5051 161.542 72.3755 152.445 74.9639 143.508C75.9589 140.02 77.3971 136.674 79.2433 133.551C80.8493 130.821 82.4269 128.063 83.9668 125.304C84.5997 124.189 85.1476 123.028 85.7144 121.875C88.4758 116.477 92.5372 111.85 97.5324 108.413C100.102 106.524 102.813 104.909 105.468 103.161C113.747 97.7628 120.338 90.1407 124.484 81.1687C125.712 78.5425 126.166 75.6895 127.006 72.9594C127.548 71.1377 127.441 69.1848 126.704 67.433C125.873 65.1752 125.136 62.8702 124.305 60.603C124.085 59.9679 123.766 59.3717 123.36 58.8364C122.415 57.665 121.395 57.8917 120.8 59.271C120.625 59.6882 120.492 60.1217 120.403 60.5652C120.306 61.0076 120.237 61.4556 120.195 61.9066C119.77 66.4978 119.251 71.0795 118.948 75.6706C118.697 79.8597 117.031 83.8395 114.225 86.9596C113.432 87.872 112.57 88.7216 111.646 89.5008C104.372 95.5278 97.2868 101.782 90.2867 108.102C89.2892 109.027 88.2422 109.897 87.1503 110.709C85.1124 112.176 83.5596 114.219 82.6915 116.575C81.7696 118.725 80.7126 120.813 79.5268 122.829C76.7494 127.94 73.9531 133.041 71.2797 138.209C68.9018 142.702 65.4364 146.527 61.1999 149.337C60.3013 149.899 59.4484 150.53 58.6493 151.226C57.6777 152.188 56.4966 152.912 55.1987 153.341C53.9007 153.771 52.521 153.894 51.1674 153.701C49.1332 153.468 47.1179 153.153 45.1215 152.757C41.85 152.164 38.5425 151.792 35.2212 151.642C34.2765 151.585 33.4074 151.642 32.5005 151.642C30.6962 151.642 28.8824 151.642 27.0781 151.5C23.3764 151.189 19.7735 150.146 16.4787 148.43C15.0617 147.721 13.6447 146.994 12.2749 146.219C10.5887 145.314 9.25733 143.866 8.49619 142.11C7.267 139.356 6.24393 136.514 5.43542 133.608C5.24344 132.959 5.19509 132.275 5.29372 131.605C5.40336 131.085 5.63512 130.598 5.9699 130.185C6.30468 129.772 6.73289 129.445 7.21918 129.23C7.70547 129.015 8.23591 128.918 8.76674 128.949C9.29757 128.979 9.81357 129.135 10.2722 129.404C10.5345 129.553 10.7841 129.724 11.0185 129.914C14.1149 132.131 17.8106 133.356 21.6178 133.428C23.2751 133.528 24.9379 133.48 26.5868 133.287C29.6782 132.934 32.8092 133.293 35.7408 134.335C40.2469 135.866 44.7058 137.547 49.1836 139.153C49.9587 139.452 50.7542 139.696 51.5642 139.881C52.0791 139.98 52.6081 139.98 53.1229 139.881C53.2546 139.826 53.3724 139.743 53.4673 139.636C53.5621 139.53 53.6317 139.404 53.6708 139.267C53.6777 138.974 53.5918 138.686 53.4252 138.445C53.3685 138.331 53.1985 138.256 53.0568 138.19C50.4306 136.88 47.7981 135.573 45.1593 134.269C40.7684 132.227 36.178 130.644 31.4614 129.546C29.3359 128.998 27.2009 128.516 25.0848 127.959C20.8502 126.804 16.808 125.035 13.0873 122.706C11.8507 121.955 10.7893 120.947 9.97456 119.751C9.15983 118.555 8.61065 117.198 8.36394 115.772C7.64826 112.135 7.53019 108.405 8.01439 104.729C8.15639 103.328 8.62201 101.979 9.37451 100.789C10.127 99.5988 11.1458 98.5997 12.3505 97.8707C14.5373 96.5 16.2874 94.5336 17.3951 92.2026C17.943 91.1256 18.5382 90.0676 19.0955 89.0001C19.2759 88.6678 19.4337 88.3238 19.5679 87.9704C19.7048 87.6979 19.7556 87.3901 19.7134 87.0881C19.6712 86.786 19.5381 86.504 19.3317 86.2794C19.0419 86.0322 18.6793 85.8863 18.299 85.8642C17.9187 85.842 17.5416 85.9447 17.225 86.1566C16.9213 86.378 16.634 86.6211 16.3654 86.884C15.2236 87.89 13.7906 88.5056 12.2749 88.6411C11.6042 88.7072 10.924 88.7828 10.2438 88.7828C8.88029 88.7354 7.5212 88.9636 6.24785 89.4535C5.17562 89.8452 4.02027 89.9526 2.89422 89.7653C2.7601 89.7581 2.62904 89.7224 2.5098 89.6606C2.39056 89.5988 2.28588 89.5122 2.20274 89.4067C2.11959 89.3012 2.0599 89.1792 2.02764 89.0488C1.99539 88.9184 1.99131 88.7827 2.01568 88.6506C2.15557 87.6756 2.58317 86.7644 3.24377 86.0338C6.04239 82.6373 9.55479 79.899 13.5313 78.0135C17.6785 76.0107 21.9107 74.2347 26.1334 72.3454C30.7812 70.3332 35.4668 68.4344 40.1052 66.4128C41.4744 65.777 42.7915 65.0347 44.0445 64.1928C45.5705 63.1979 46.8343 61.8499 47.7288 60.2629C51.3375 54.0186 56.7316 49.7958 63.1743 46.7729C67.5174 44.8268 72.0057 43.2223 76.5982 41.9739C78.7805 41.3504 80.9816 40.7836 83.1071 40.0184C87.2253 38.5024 91.0579 36.3018 94.4433 33.5095C95.995 32.2861 97.0111 30.508 97.2773 28.55C97.3812 27.8698 97.4474 27.1991 97.5702 26.5283C97.9957 23.9607 99.3384 21.6345 101.349 19.9817C101.9 19.4547 102.619 19.1401 103.38 19.0937C103.537 19.075 103.696 19.0933 103.844 19.1471C103.992 19.2009 104.126 19.2887 104.235 19.4035C104.343 19.5183 104.423 19.6569 104.468 19.8082C104.513 19.9594 104.522 20.1191 104.495 20.2745C104.333 21.0068 104.063 21.7106 103.692 22.3623C102.388 24.5729 100.999 26.7362 99.6674 28.9751C98.9589 30.137 98.2787 31.3084 97.6079 32.4987C97.3236 33.0311 97.0712 33.58 96.8522 34.1425C96.5877 34.8132 97.0506 35.3517 97.7969 35.21C98.8716 35.0882 99.872 34.6014 100.631 33.8307C101.226 33.16 101.85 32.4893 102.426 31.7997C104.57 29.249 106.762 26.7551 108.802 24.1383C110.843 21.5215 112.647 19.0843 114.357 16.4108C117.303 11.7999 121.487 8.11058 126.43 5.76424C130.07 3.89388 133.863 2.33587 137.766 1.10697C142.326 -0.394422 147.251 -0.367895 151.795 1.18254C154.846 2.26892 157.954 3.24195 160.958 4.46059C165.577 6.19606 169.718 9.00313 173.041 12.651C175.025 14.934 176.823 17.3728 178.416 19.9439C182.658 26.7267 186.55 33.7174 190.385 40.7269C190.857 41.5866 191.33 42.4273 191.83 43.2964C192.716 44.9008 194.023 46.2334 195.609 47.1507C199.994 49.8754 203.635 53.6435 206.209 58.1185C208.053 61.245 209.524 64.5774 210.592 68.0471C211.244 70.2979 211.528 72.6395 211.433 74.981C211.438 79.367 211.211 83.7501 210.752 88.1121C210.28 91.7977 210.792 95.5427 212.236 98.9665C213.341 101.621 214.465 104.257 215.58 106.902C216.799 109.754 217.747 112.715 218.414 115.744C219.088 118.924 219.219 122.194 218.801 125.418C218.466 128.27 218.315 131.142 218.348 134.014C218.348 135.375 218.348 136.735 218.348 138.095C218.414 145.747 216.269 152.861 212.925 159.653C210.05 165.318 206.421 170.568 202.137 175.259C196.205 182.037 189.466 188.064 182.072 193.208C176.933 196.672 171.592 199.826 166.078 202.655C164.681 203.4 163.407 204.356 162.3 205.489C159.119 208.827 156.12 212.333 153.316 215.994C152.522 216.995 151.719 217.996 150.945 219.026C150.575 219.497 150.259 220.007 150 220.547C149.959 220.683 149.951 220.827 149.978 220.967C150.004 221.107 150.063 221.238 150.151 221.35C150.266 221.435 150.399 221.493 150.54 221.519C150.681 221.545 150.826 221.539 150.964 221.501C151.308 221.361 151.627 221.167 151.908 220.925C154.95 218.809 157.964 216.664 161.015 214.577C168.119 209.721 175.1 204.667 182.743 200.633C187.171 198.315 191.341 195.535 195.184 192.339C197.508 190.449 199.804 188.447 202.118 186.501C202.566 186.095 203.042 185.722 203.545 185.386C203.689 185.283 203.855 185.213 204.029 185.181C204.204 185.148 204.383 185.154 204.555 185.197C204.801 185.32 204.914 185.783 205.009 186.142C205.04 186.366 205.024 186.595 204.962 186.812C204.385 189.779 203.847 192.745 203.195 195.692C202.627 198.126 201.67 200.451 200.361 202.579C198.887 205.045 197.527 207.558 195.959 209.976C193.868 213.133 191.232 215.894 188.175 218.129C184.604 220.671 180.696 222.703 176.564 224.165C172.786 225.639 169.083 227.424 165.351 229.059C163.622 229.814 161.903 230.589 160.146 231.279C157.714 232.15 155.168 232.659 152.588 232.79C149.047 233.095 145.488 233.127 141.942 232.884C138.975 232.623 136.017 233.478 133.648 235.284C130.521 237.646 127.45 240.092 124.342 242.501C122.075 244.249 119.846 246.091 117.078 247.045C115.585 247.555 114.074 248.047 112.534 248.424C104.164 250.452 95.791 252.465 87.4149 254.461C86.763 254.622 86.0923 254.744 85.4216 254.858C80.3228 255.605 75.4375 257.414 71.0813 260.167C66.4146 263.247 61.6345 266.213 57.6196 270.105C55.6641 271.994 53.8409 274.006 51.9515 276.009C50.8411 277.13 49.6678 278.187 48.4373 279.174ZM206.02 139.994C206.02 137.16 205.972 135.016 206.02 132.909C206.02 131.804 206.53 131.558 207.484 131.964C207.824 132.115 208.145 132.333 208.495 132.465C208.63 132.544 208.782 132.589 208.939 132.595C209.096 132.601 209.251 132.567 209.392 132.498C209.533 132.429 209.654 132.325 209.744 132.198C209.835 132.07 209.893 131.921 209.912 131.766C210.118 130.887 210.214 129.986 210.195 129.083C209.855 124.41 209.471 119.743 209.043 115.083C208.894 112.583 208.211 110.145 207.04 107.932C206.152 106.352 205.177 104.822 204.121 103.35C202.231 100.648 200.115 98.0407 198.226 95.3106C196.66 93.0875 194.926 90.9874 193.04 89.0284C191.025 86.8688 188.811 84.9046 186.427 83.162C181.691 79.7672 176.472 77.1049 170.944 75.2644C168.572 74.4709 166.22 73.649 163.896 72.761C159.819 71.3228 156.075 69.0733 152.891 66.1483C151.952 65.2724 150.937 64.482 149.858 63.7866C149.217 63.4007 148.514 63.1291 147.78 62.9836C146.901 62.7758 146.344 63.4465 146.542 64.3345C146.746 65.1467 147.168 65.888 147.761 66.4789C148.829 67.6503 149.839 68.8689 150.926 70.0215C153.155 72.3832 155.309 74.8299 157.68 77.0404C161.512 80.4603 165.599 83.5836 169.904 86.3833C172.778 88.2464 175.088 90.8598 176.583 93.9408C177.849 96.5953 179.417 99.1176 180.768 101.716C182.053 104.115 183.366 106.496 184.547 108.942C187.283 114.299 188.274 120.377 187.381 126.324C187.211 127.439 187.154 128.582 187.069 129.706C186.72 134.609 186.361 139.503 186.04 144.406C185.957 145.917 185.605 147.401 185 148.789C181.496 156.62 177.235 163.961 171.303 170.271C168.705 173.201 166.564 176.507 164.954 180.077C162.243 185.669 160.571 191.649 158.342 197.412C158.161 198.061 158.132 198.743 158.256 199.405C158.268 199.577 158.324 199.743 158.417 199.888C158.511 200.032 158.641 200.15 158.793 200.231C158.945 200.311 159.116 200.351 159.288 200.347C159.46 200.343 159.629 200.295 159.777 200.208C160.661 199.763 161.386 199.057 161.856 198.186L163.698 195.059C165.696 191.506 167.93 188.091 170.386 184.838C172.823 181.739 175.639 179.009 178.303 176.119C178.578 175.849 178.897 175.628 179.247 175.467C179.388 175.369 179.551 175.309 179.721 175.29C179.891 175.272 180.064 175.296 180.222 175.361C180.38 175.425 180.52 175.528 180.629 175.661C180.737 175.793 180.811 175.951 180.844 176.119C181.042 176.77 181.146 177.451 181.363 178.093C181.395 178.323 181.489 178.54 181.636 178.719C181.782 178.899 181.976 179.035 182.195 179.111C182.414 179.187 182.65 179.201 182.877 179.152C183.104 179.102 183.312 178.991 183.479 178.83C184.076 178.42 184.613 177.931 185.076 177.375C186.776 175.353 188.458 173.303 190.102 171.235C194.038 166.266 197.968 161.284 201.891 156.29C204.168 153.532 205.494 150.113 205.67 146.541C205.783 144.075 205.935 141.666 206.02 139.994ZM87.3109 231.146C87.2369 232.583 87.4688 234.019 87.9911 235.36C88.0485 235.553 88.1611 235.726 88.3152 235.857C88.4692 235.987 88.6581 236.07 88.8585 236.095C89.059 236.121 89.2625 236.087 89.444 235.998C89.6255 235.909 89.7772 235.769 89.8805 235.596C90.4393 234.889 90.906 234.115 91.2691 233.291C92.62 230.013 93.8765 226.678 95.2179 223.409C96.681 219.817 99.1227 216.708 102.265 214.435C106.469 211.355 110.597 208.181 114.839 205.158C118.618 202.485 122.396 199.868 126.27 197.412C130.9 194.551 135.817 192.183 140.94 190.346C145.259 188.804 148.923 185.839 151.332 181.938C152.321 180.357 153.4 178.833 154.563 177.375C157.358 174.1 159.717 170.477 161.582 166.596C164.85 159.436 167.571 152.076 170.169 144.661C171.087 142.017 171.356 139.192 170.953 136.423C170.462 132.644 170.065 128.922 169.517 125.191C168.853 119.459 166.864 113.961 163.707 109.131C162.139 106.817 160.732 104.408 159.22 102.056C157.054 98.5961 155.342 94.8717 154.128 90.9745C153.41 88.7545 152.777 86.4967 152.135 84.2483C151.858 83.0669 151.286 81.975 150.472 81.0742C150.387 80.972 150.276 80.8957 150.149 80.854C150.023 80.8124 149.888 80.807 149.759 80.8385C149.63 80.87 149.512 80.9372 149.42 81.0323C149.327 81.1274 149.263 81.2467 149.235 81.3765C149.106 82.3444 149.09 83.324 149.188 84.2956C149.82 88.3199 150.453 92.3537 151.247 96.3497C152.617 103.246 154.374 110.038 156.348 116.783C157.553 120.773 158.246 124.9 158.408 129.064C158.459 132.389 158.215 135.711 157.68 138.993C157.038 143.404 156.377 147.806 155.63 152.218C155.396 153.165 155.017 154.07 154.506 154.901C154.122 155.56 153.693 156.191 153.221 156.79C149.443 162.326 145.56 167.834 141.403 173.115C140.003 174.886 138.384 176.473 136.586 177.838C133.156 180.316 129.477 182.427 125.608 184.139C123.766 185.008 121.896 185.83 120.082 186.765C115.92 188.79 112.343 191.843 109.69 195.636C108.765 196.924 107.732 198.131 106.601 199.244C104.249 201.701 101.878 204.109 99.4595 206.518C98.3242 207.626 97.3424 208.881 96.5405 210.25C94.2543 214.34 91.9776 218.431 89.6632 222.531C88.1657 225.159 87.3566 228.122 87.3109 231.146ZM140.619 111.701H140.496C140.496 109.282 140.496 106.864 140.496 104.446C140.378 100.666 139.687 96.9269 138.447 93.3551C136.847 88.6317 135.25 83.9083 133.657 79.1849C133.482 78.611 133.241 78.0593 132.939 77.5411C132.865 77.3717 132.738 77.2312 132.576 77.1415C132.415 77.0517 132.228 77.0176 132.046 77.0445C131.863 77.0714 131.694 77.1577 131.565 77.2902C131.436 77.4226 131.355 77.5938 131.333 77.7773C131.168 78.3558 131.072 78.9521 131.05 79.5533C130.984 80.498 130.974 81.5182 130.955 82.5007C130.77 85.977 130.979 89.4631 131.579 92.8922C132.168 95.9328 132.453 99.0246 132.429 102.122C132.449 106.883 131.964 111.633 130.984 116.292C130.151 120.378 128.425 124.23 125.93 127.571C123.376 131.053 120.237 134.064 116.653 136.47C112.071 139.522 107.433 142.507 102.841 145.549C100.829 146.881 98.8455 148.25 96.8994 149.677C94.4757 151.622 92.5356 154.102 91.2313 156.923C88.6996 161.731 86.234 166.568 83.6739 171.357C81.8063 174.642 80.2381 178.088 78.9883 181.654C76.6805 188.659 76.1832 196.134 77.5429 203.382C77.6868 204.04 77.9188 204.676 78.2326 205.271C78.3164 205.387 78.4275 205.481 78.556 205.543C78.6845 205.606 78.8265 205.636 78.9694 205.63C79.241 205.539 79.4718 205.355 79.6212 205.111C79.7252 204.909 79.7802 204.686 79.7818 204.459C80.1502 201.389 80.4998 198.309 80.8682 195.239C81.0624 192.6 81.7012 190.013 82.7576 187.587C84.3068 184.394 85.8278 181.182 87.5471 178.084C90.4056 172.736 94.2523 167.979 98.8833 164.064C102.032 161.476 105.209 158.925 108.415 156.413C113.163 152.797 118.199 149.578 123.473 146.786C125.254 145.8 126.982 144.722 128.65 143.555C130.338 142.394 131.779 140.911 132.892 139.191C133.723 137.935 134.583 136.688 135.357 135.412C138.994 129.395 141.092 122.952 140.638 115.82C140.544 114.421 140.619 113.061 140.619 111.701ZM137.445 27.3502C134.132 27.3432 130.865 28.1235 127.913 29.6269C123.7 31.658 119.553 33.8402 115.396 35.9846C114.713 36.3275 114.077 36.7595 113.507 37.2694C113.318 37.4045 113.165 37.5849 113.064 37.7941C112.963 38.0034 112.915 38.2347 112.927 38.467C112.938 38.6992 113.007 38.9249 113.129 39.1233C113.25 39.3218 113.419 39.4866 113.62 39.6027C116.634 41.7849 119.808 43.3814 123.738 42.1911C127.866 40.9725 132.032 39.8956 136.179 38.7336C141.328 37.2977 145.796 38.3463 149.235 42.5123C151.483 45.2519 153.618 48.1143 155.583 51.0145C157.258 53.6188 159.216 56.0298 161.421 58.2035C165.397 61.8236 170.049 64.623 175.11 66.4411C177.944 67.5275 180.702 68.7272 183.404 70.0687C188.083 72.3866 192.43 75.3224 196.327 78.7975C196.776 79.199 197.26 79.5594 197.772 79.8745C197.945 80.0285 198.169 80.1136 198.401 80.1136C198.632 80.1136 198.856 80.0285 199.029 79.8745C199.445 79.4872 199.237 79.0432 199.029 78.6369C198.955 78.5046 198.866 78.381 198.764 78.2685C194.381 72.7043 189.412 67.792 183.196 64.2589C182.081 63.6165 180.948 63.0214 179.814 62.3695C176.354 60.5017 173.142 58.2071 170.254 55.5395C167.239 52.7706 164.688 49.5366 162.696 45.9604C161.969 44.6379 161.308 43.2775 160.58 41.955C157.954 37.156 154.497 33.1411 149.575 30.5432C145.85 28.5123 141.687 27.4166 137.445 27.3502ZM110.937 31.1289C110.937 31.4123 110.985 31.6296 111.022 31.8563C111.155 32.801 111.646 33.1506 112.609 32.9144C113.264 32.7539 113.898 32.5194 114.499 32.2153C115.443 31.7415 116.358 31.2115 117.238 30.6283C120.565 28.5407 124.056 26.7272 127.677 25.2058C131.403 23.538 134.836 21.2795 137.842 18.5174C139.438 16.9868 141.506 16.0441 143.708 15.844C146.414 15.5717 149.138 15.5211 151.852 15.6929C157.63 16.0234 163.178 18.0692 167.788 21.5688C169.234 22.6646 170.622 23.8643 172.002 25.0074C174.344 26.8968 176.678 28.7861 179.03 30.6755C179.444 30.9964 179.911 31.2426 180.409 31.4029C180.552 31.4091 180.695 31.3855 180.828 31.3334C180.962 31.2814 181.083 31.2021 181.184 31.1006C181.251 31.0115 181.297 30.9077 181.317 30.7977C181.336 30.6877 181.33 30.5746 181.297 30.4677C180.853 29.3402 180.166 28.3243 179.285 27.4919C175.743 23.9871 172.266 20.4068 168.629 17.006C165.84 14.443 162.58 12.4444 159.031 11.1206C155.123 9.6825 151.007 8.89118 146.845 8.77778C138.796 8.42825 131.437 10.4215 125.07 15.5606C123.606 16.7509 122.122 17.9223 120.715 19.1787C118.183 21.4459 115.699 23.7604 113.157 26.0654C111.822 27.4164 111.031 29.2126 110.937 31.11V31.1289ZM155.507 24.7996C154.676 24.7334 154.166 24.9696 153.987 25.3947C153.876 25.6394 153.85 25.9138 153.911 26.1752C153.973 26.4366 154.119 26.6703 154.327 26.8401C155.207 27.6754 156.155 28.4369 157.161 29.1168C160.835 31.3998 163.907 34.5329 166.116 38.2518C167.76 41.0859 169.328 43.9199 170.944 46.7067C173.013 50.4267 175.925 53.6103 179.446 56.0024C181.406 57.2858 183.536 58.2875 185.775 58.9781C188.62 59.8175 191.108 61.5746 192.851 63.9755C195.77 68.0187 198.802 71.9675 201.816 75.9352C202.566 76.8814 203.364 77.7894 204.206 78.6558C204.318 78.7477 204.448 78.8146 204.589 78.8521C204.729 78.8895 204.875 78.8967 205.018 78.8731C205.462 78.7975 205.585 78.3819 205.538 77.9946C205.46 77.4737 205.333 76.9614 205.16 76.4642C203.873 72.5861 201.993 68.9309 199.586 65.6287C197.007 62.0956 194.287 58.6664 191.566 55.2372C189.019 52.0329 185.879 49.3485 182.318 47.3302C179.118 45.5941 176.351 43.1596 174.222 40.2073C173.23 38.7903 172.332 37.326 171.388 35.8523C170.088 33.7226 168.44 31.8258 166.513 30.2409C163.518 27.832 160.042 26.3961 156.528 25.0074C156.196 24.8969 155.854 24.8209 155.507 24.7807V24.7996ZM70.0138 56.7392C69.3174 56.7819 68.6237 56.8607 67.9355 56.9754C67.6899 57.0321 67.3309 57.3438 67.3309 57.5422C67.3244 57.7199 67.3574 57.8969 67.4277 58.0603C67.498 58.2237 67.6036 58.3694 67.7371 58.4869C68.3503 58.7949 68.9812 59.0662 69.6265 59.2993C70.0253 59.4983 70.4076 59.7289 70.7696 59.9889C70.8199 60.0448 70.8575 60.111 70.8798 60.1828C70.9021 60.2546 70.9085 60.3304 70.8986 60.405C70.8887 60.4795 70.8628 60.551 70.8226 60.6146C70.7823 60.6781 70.7288 60.7322 70.6656 60.773C70.3996 60.8992 70.1162 60.9851 69.8249 61.0281C67.7938 61.2265 65.7628 61.3682 63.7317 61.6043C62.7713 61.7234 61.823 61.9257 60.8977 62.2089C60.6683 62.2362 60.4473 62.3115 60.249 62.4298C60.0507 62.5482 59.8795 62.7071 59.7467 62.896C59.6139 63.085 59.5224 63.2998 59.4782 63.5265C59.434 63.7532 59.438 63.9867 59.4901 64.2117C59.5501 65.1892 59.6955 66.1596 59.9246 67.1118C60.1325 68.0565 60.482 69.0012 60.6804 69.9459C61.0488 71.7502 60.6804 72.5626 59.1217 73.564C57.5629 74.5654 55.6547 75.699 53.907 76.7476C52.8017 77.3994 51.6587 77.9851 50.5723 78.6369C50.4256 78.7381 50.3042 78.8717 50.2173 79.0273C50.1305 79.1829 50.0807 79.3564 50.0716 79.5344C50.1266 79.7014 50.2216 79.8525 50.3484 79.9744C50.4752 80.0962 50.6299 80.1852 50.799 80.2335C51.6923 80.3562 52.5981 80.3562 53.4913 80.2335C54.6808 80.0166 55.85 79.7006 56.9867 79.2888C59.1972 78.533 61.37 77.645 63.5994 76.9176C71.7005 74.214 79.4758 70.6178 86.7819 66.1955C87.231 65.9359 87.6439 65.6183 88.01 65.2508C88.2374 65.0469 88.4087 64.7881 88.5075 64.4991C88.6063 64.2101 88.6294 63.9005 88.5744 63.6001C88.5194 63.2997 88.3883 63.0183 88.1935 62.783C87.9988 62.5477 87.747 62.3663 87.4621 62.2562C86.851 61.9518 86.2197 61.6898 85.5727 61.4721C81.0571 59.9795 76.5353 58.5026 72.0071 57.0415C71.3513 56.8904 70.6849 56.7893 70.0138 56.7392ZM72.1299 45.6865C70.976 45.5915 69.8196 45.8379 68.8046 46.395C65.5549 47.9726 62.3241 49.5975 59.0933 51.2318C57.015 52.2898 55.6925 54.1697 54.2188 55.8796C54.0973 56.0262 54.0094 56.1976 53.9612 56.3818C53.9131 56.566 53.9058 56.7585 53.9401 56.9457C53.9743 57.133 54.0491 57.3106 54.1593 57.4658C54.2694 57.6211 54.4123 57.7504 54.5777 57.8445C54.8244 58.0173 55.0908 58.16 55.3713 58.2696C57.0811 58.8742 58.7627 59.5449 60.5009 60.0456C62.7965 60.7258 63.6089 60.2912 64.4402 57.9768C65.1061 56.1296 66.0944 54.4152 67.3593 52.9133C68.6629 51.3546 70.0799 49.8809 71.4308 48.3694C71.8609 47.95 72.247 47.4878 72.5834 46.9901C72.6603 46.8307 72.7049 46.6577 72.7146 46.4809C72.7243 46.3042 72.699 46.1273 72.64 45.9604C72.5645 45.762 72.1488 45.6959 72.1299 45.6865Z" fill="white"/>
<path fill-rule="evenodd" clip-rule="evenodd" d="M77.1144 67.7165C76.7838 68.0943 76.5665 68.5289 76.1698 68.7273C73.6662 70.2889 70.6947 70.924 67.7716 70.5222C67.4003 70.486 67.0435 70.3595 66.7324 70.1537C66.6349 70.0545 66.5632 69.9328 66.5237 69.7994C66.4841 69.666 66.478 69.5249 66.5057 69.3885C66.6342 69.0279 66.8481 68.7038 67.1292 68.4439C68.3646 67.3423 69.8919 66.6208 71.5274 66.3661C73.163 66.1113 74.8373 66.3342 76.3493 67.0079C76.6337 67.2103 76.8909 67.4484 77.1144 67.7165Z" fill="white"/>
</g>
</svg>
